<svg width="24" height="24" viewBox="0 0 24 24" fill="none" xmlns="http://www.w3.org/2000/svg">
<path d="M12 3C10.1441 3.00201 8.36488 3.70629 7.05258 4.95835C5.74028 6.2104 5.00211 7.90797 5 9.67864C5 15.3934 11.3636 19.7095 11.6349 19.8901C11.7419 19.9616 11.8694 20 12 20C12.1306 20 12.2581 19.9616 12.3651 19.8901C12.6364 19.7095 19 15.3934 19 9.67864C18.9979 7.90797 18.2597 6.2104 16.9474 4.95835C15.6351 3.70629 13.8559 3.00201 12 3ZM12 7.25004C12.5034 7.25004 12.9956 7.39248 13.4142 7.65934C13.8328 7.92619 14.159 8.30549 14.3517 8.74925C14.5444 9.19302 14.5948 9.68133 14.4965 10.1524C14.3983 10.6235 14.1559 11.0563 13.7999 11.3959C13.4439 11.7356 12.9904 11.9669 12.4966 12.0606C12.0028 12.1543 11.491 12.1062 11.0259 11.9224C10.5608 11.7386 10.1632 11.4273 9.88353 11.0279C9.60383 10.6285 9.45455 10.159 9.45455 9.67864C9.45455 9.03453 9.72273 8.41681 10.2001 7.96136C10.6775 7.50591 11.3249 7.25004 12 7.25004Z" fill="#F5F5F5"/>
</svg>
