<svg width="28" height="29" viewBox="0 0 28 29" fill="none" xmlns="http://www.w3.org/2000/svg">
<path fill-rule="evenodd" clip-rule="evenodd" d="M14.0001 16.9757L20.1869 23.1625C20.5152 23.4908 20.9605 23.6752 21.4248 23.6752C21.8891 23.6752 22.3343 23.4908 22.6626 23.1625C22.9909 22.8342 23.1753 22.389 23.1753 21.9247C23.1753 21.4604 22.9909 21.0151 22.6626 20.6868L16.4734 14.5L22.6614 8.31317C22.8239 8.15062 22.9528 7.95765 23.0407 7.74529C23.1286 7.53294 23.1738 7.30534 23.1738 7.07551C23.1737 6.84568 23.1284 6.61811 23.0404 6.40579C22.9524 6.19347 22.8234 6.00057 22.6609 5.83809C22.4983 5.67561 22.3053 5.54674 22.093 5.45884C21.8806 5.37094 21.653 5.32572 21.4232 5.32577C21.1934 5.32583 20.9658 5.37115 20.7535 5.45915C20.5412 5.54716 20.3483 5.67612 20.1858 5.83867L14.0001 12.0255L7.81327 5.83867C7.65192 5.67146 7.45888 5.53805 7.24542 5.44623C7.03195 5.35442 6.80234 5.30603 6.56998 5.30391C6.33762 5.30178 6.10716 5.34595 5.89205 5.43384C5.67694 5.52173 5.48149 5.65158 5.3171 5.81581C5.15271 5.98005 5.02268 6.17538 4.93459 6.3904C4.84649 6.60543 4.80211 6.83585 4.80401 7.06821C4.80592 7.30057 4.85409 7.53023 4.9457 7.74378C5.03732 7.95733 5.17054 8.1505 5.33761 8.31201L11.5268 14.5L5.33877 20.688C5.17171 20.8495 5.03848 21.0427 4.94687 21.2562C4.85526 21.4698 4.80709 21.6994 4.80518 21.9318C4.80327 22.1642 4.84766 22.3946 4.93575 22.6096C5.02384 22.8246 5.15388 23.02 5.31827 23.1842C5.48266 23.3484 5.67811 23.4783 5.89322 23.5662C6.10833 23.6541 6.33879 23.6982 6.57115 23.6961C6.80351 23.694 7.03312 23.6456 7.24658 23.5538C7.46005 23.462 7.65309 23.3286 7.81444 23.1613L14.0001 16.9757Z" fill="#F5F5F5"/>
</svg>
