<svg width="20" height="20" viewBox="0 0 20 20" fill="none" xmlns="http://www.w3.org/2000/svg">
<path d="M9.50018 15.1342L15.6635 8.97084C14.6267 8.53769 13.685 7.90517 12.8918 7.10917C12.0955 6.31587 11.4626 5.37388 11.0293 4.33667L4.86601 10.5C4.38518 10.9808 4.14435 11.2217 3.93768 11.4867C3.69384 11.7996 3.48457 12.1379 3.31351 12.4958C3.16935 12.7992 3.06185 13.1225 2.84685 13.7675L1.71185 17.17C1.65961 17.3258 1.65186 17.4931 1.68947 17.653C1.72707 17.813 1.80855 17.9593 1.92474 18.0754C2.04093 18.1916 2.18722 18.2731 2.34717 18.3107C2.50712 18.3483 2.67439 18.3406 2.83018 18.2883L6.23268 17.1533C6.87851 16.9383 7.20101 16.8308 7.50435 16.6867C7.86379 16.5156 8.20018 16.3075 8.51351 16.0625C8.77851 15.8558 9.01935 15.615 9.50018 15.1342ZM17.3735 7.26083C17.988 6.64631 18.3333 5.81283 18.3333 4.94375C18.3333 4.07468 17.988 3.2412 17.3735 2.62667C16.759 2.01214 15.9255 1.6669 15.0564 1.6669C14.1874 1.6669 13.3539 2.01214 12.7393 2.62667L12.0002 3.36583L12.0318 3.45833C12.396 4.50065 12.9921 5.44666 13.7752 6.225C14.5768 7.03152 15.5559 7.63937 16.6343 8L17.3735 7.26083Z" fill="#F5F5F5"/>
</svg>
