<svg xmlns="http://www.w3.org/2000/svg" id="_레이어_1" viewBox="0 0 160 160" width="160" height="160"><defs><style>.st0{fill:#3d4054}</style></defs><path d="M114.24 78.35L85.93 29.37c-2.19-4.36-8.41-4.36-10.6 0L55.79 61.72l-4.98-4.98c-3.37-3.37-9.12-.98-9.12 3.78v36.27c.35 10.72 5.17 21.13 13.89 28.33 14.17 11.7 34.65 11.7 48.82 0 13.79-11.39 17.87-30.8 9.84-46.77zm-9.94 34.37c0 2.99-2.43 5.42-5.42 5.42H61.13c-2.99 0-5.42-2.43-5.42-5.42V79.24c0-2.99 2.43-5.42 5.42-5.42h4.79v-.39a5.83 5.83 0 1 1 11.66 0v.39h4.21v-.39a5.83 5.83 0 1 1 11.66 0v.39h5.44c2.99 0 5.42 2.43 5.42 5.42v33.48z" class="st0"/><path d="M87.61 70.6c1.56 0 2.83 1.27 2.83 2.83v6.78c0 1.56-1.27 2.83-2.83 2.83s-2.83-1.27-2.83-2.83v-6.78c0-1.56 1.27-2.83 2.83-2.83z" class="st0"/><path d="M98.87 76.82h-5.43v3.39c0 3.21-2.61 5.83-5.83 5.83s-5.83-2.62-5.83-5.83v-3.39h-4.21v3.39c0 3.21-2.61 5.83-5.83 5.83s-5.83-2.62-5.83-5.83v-3.39h-4.79c-1.34 0-2.42 1.08-2.42 2.42v33.48c0 1.34 1.08 2.42 2.42 2.42h37.75c1.34 0 2.42-1.08 2.42-2.42V79.24c0-1.34-1.08-2.42-2.42-2.42z" class="st0"/><path d="M71.74 70.6c1.56 0 2.83 1.27 2.83 2.83v6.78c0 1.56-1.27 2.83-2.83 2.83s-2.83-1.27-2.83-2.83v-6.78c0-1.56 1.27-2.83 2.83-2.83z" class="st0"/></svg>