<svg width="270" height="77" viewBox="0 0 270 77" fill="none" xmlns="http://www.w3.org/2000/svg">
<path d="M17.6926 47.284H38.9346V50.552H42.2026V61.732H38.9346V65H4.10467V61.732H0.83667V3.768H4.10467V0.5H14.4246V3.768H17.6926V47.284ZM58.7382 32.578H73.1862V28.794H70.1762V26.3H61.7482V28.794H58.7382V32.578ZM85.2262 23.462H88.0642V42.64H85.2262V45.478H58.7382V48.144H62.1782V51.068H84.6242V53.992H87.7202V62.248H84.6242V65H53.1482V62.248H49.8802V58.894H46.6982V55.454H43.8602V23.462H46.6982V19.764H49.7942V16.238H52.8902V13.486H79.0342V16.238H82.1302V19.764H85.2262V23.462ZM116.643 26.902H108.645V29.482H106.065V38.512H108.645V41.092H116.643V26.902ZM132.639 66.806H129.801V70.246H126.619V73.6H123.351V76.352H95.143V73.6H92.047V64.914H95.143V61.99H113.461V59.066H116.901V54.336H99.615V51.498H96.347V48.402H93.165V44.704H90.327V23.29H93.165V19.678H96.347V16.496H99.615V13.486H129.801V16.324H132.639V66.806ZM163.926 52.186V44.618H152.746V47.026H150.166V49.778H152.746V52.186H163.926ZM176.998 20.452H179.75V61.904H176.998V65H143.544V61.044H140.362V57.518H137.352V54.422H134.6V41.866H137.352V38.77H140.362V35.244H143.544V31.976H163.926V27.848H140.104V24.752H137.18V16.496H140.104V13.486H174.074V16.496H176.998V20.452ZM221.811 16.324H224.907V26.3H221.811V28.88H202.805V31.804H199.365V46.854H202.805V49.778H221.811V52.702H224.907V62.248H221.811V65H191.625V61.818H188.357V58.206H185.175V54.078H182.337V24.58H185.175V20.538H188.357V16.926H191.625V13.486H221.811V16.324ZM236.328 54.336V51.498H233.06V48.402H229.878V44.704H227.04V16.152H229.964V13.486H239.596V16.152H242.434V36.878H245.186V40.404H251.55V36.878H254.302V16.324H257.14V13.486H266.6V16.324H269.438V66.806H266.6V70.246H263.418V73.6H260.15V76.352H231.856V73.6H228.76V64.914H231.856V61.99H250.174V59.066H253.614V54.336H236.328Z" fill="white"/>
</svg>
