<svg xmlns="http://www.w3.org/2000/svg" id="_레이어_1" viewBox="0 0 160 160" width="160" height="160"><defs><style>.st0{fill:none}.st1{fill:#3a9eba}.st2{fill:#2a7e8c}.st3{fill:#3494ab}.st4{fill:#52d2f0}.st5{fill:#236f7c}</style></defs><path d="M19.11 114.69V44.63L79.78 9.6l60.68 35.03v70.06l-60.68 35.03-60.67-35.03z" class="st3"/><path d="M79.78 10.18l60.18 34.74v69.49l-60.18 34.74-60.18-34.74V44.92l60.18-34.74m0-1.16L18.61 44.34v70.64l61.18 35.32 61.18-35.32V44.34L79.78 9.02z" class="st3"/><path d="M133.03 48.92L79.78 18.18 26.54 48.92v61.48l53.24 30.74 53.25-30.74V48.92z" class="st0"/><path d="M133.03 48.92l7.93-4.58L79.78 9.02v9.16l53.25 30.74z" class="st4"/><path d="M79.78 18.18V9.02L18.61 44.34l7.93 4.58 53.24-30.74z" class="st3"/><path d="M79.78 141.14L26.54 110.4V48.92l-7.93-4.58v70.64l61.17 35.32v-9.16z" class="st2"/><path d="M79.78 141.14v9.16l61.18-35.32-7.93-4.58-53.25 30.74z" class="st3"/><path d="M133.03 110.4l7.93 4.58V44.34l-7.93 4.58v61.48zm-105.49-.57V49.5l52.24-30.17 52.25 30.17v60.33l-52.25 30.16-52.24-30.16z" class="st1"/><path d="M79.78 20.49l51.25 29.59v59.17l-51.25 29.59-51.25-29.59V50.08l51.25-29.59m0-2.31L26.53 48.92v61.48l53.25 30.74 53.25-30.74V48.92L79.78 18.18z" class="st5"/></svg>