<svg width="232" height="313" viewBox="0 0 232 313" fill="none" xmlns="http://www.w3.org/2000/svg">
<g filter="url(#filter0_d_5640_27310)">
<g clip-path="url(#clip0_5640_27310)">
<path d="M16 36.5C16 25.4543 24.9543 16.5 36 16.5H196C207.046 16.5 216 25.4543 216 36.5V276.5C216 287.546 207.046 296.5 196 296.5H36C24.9543 296.5 16 287.546 16 276.5V36.5Z" fill="#232424"/>
<rect x="-20.9995" y="53.8047" width="64" height="24" transform="rotate(-36 -20.9995 53.8047)" fill="#111212"/>
<rect x="34.0137" y="13.8354" width="64" height="24" transform="rotate(-36 34.0137 13.8354)" fill="#111212"/>
<rect x="-46.6104" y="107.022" width="64" height="24" transform="rotate(-36 -46.6104 107.022)" fill="#111212"/>
<rect x="8.40283" y="67.0527" width="64" height="24" transform="rotate(-36 8.40283 67.0527)" fill="#111212"/>
<rect x="63.416" y="27.083" width="64" height="24" transform="rotate(-36 63.416 27.083)" fill="#111212"/>
<rect x="-43.0967" y="139.08" width="64" height="24" transform="rotate(-36 -43.0967 139.08)" fill="#111212"/>
<rect x="11.9165" y="99.1099" width="64" height="24" transform="rotate(-36 11.9165 99.1099)" fill="#111212"/>
<rect x="66.9297" y="59.1406" width="64" height="24" transform="rotate(-36 66.9297 59.1406)" fill="#111212"/>
<rect x="121.943" y="19.1714" width="64" height="24" transform="rotate(-36 121.943 19.1714)" fill="#111212"/>
<rect x="-13.6943" y="152.327" width="64" height="24" transform="rotate(-36 -13.6943 152.327)" fill="#111212"/>
<rect x="41.3188" y="112.358" width="64" height="24" transform="rotate(-36 41.3188 112.358)" fill="#111212"/>
<rect x="96.332" y="72.3882" width="64" height="24" transform="rotate(-36 96.332 72.3882)" fill="#111212"/>
<rect x="151.345" y="32.4189" width="64" height="24" transform="rotate(-36 151.345 32.4189)" fill="#111212"/>
<rect x="-10.1807" y="184.384" width="64" height="24" transform="rotate(-36 -10.1807 184.384)" fill="#111212"/>
<rect x="44.8325" y="144.415" width="64" height="24" transform="rotate(-36 44.8325 144.415)" fill="#111212"/>
<rect x="99.8457" y="104.445" width="64" height="24" transform="rotate(-36 99.8457 104.445)" fill="#111212"/>
<rect x="154.859" y="64.4761" width="64" height="24" transform="rotate(-36 154.859 64.4761)" fill="#111212"/>
<rect x="-35.7915" y="237.601" width="64" height="24" transform="rotate(-36 -35.7915 237.601)" fill="#111212"/>
<rect x="19.2217" y="197.632" width="64" height="24" transform="rotate(-36 19.2217 197.632)" fill="#111212"/>
<rect x="74.2349" y="157.663" width="64" height="24" transform="rotate(-36 74.2349 157.663)" fill="#111212"/>
<rect x="129.248" y="117.693" width="64" height="24" transform="rotate(-36 129.248 117.693)" fill="#111212"/>
<rect x="184.261" y="77.7236" width="64" height="24" transform="rotate(-36 184.261 77.7236)" fill="#111212"/>
<rect x="-32.2778" y="269.659" width="64" height="24" transform="rotate(-36 -32.2778 269.659)" fill="#111212"/>
<rect x="22.7354" y="229.689" width="64" height="24" transform="rotate(-36 22.7354 229.689)" fill="#111212"/>
<rect x="77.7485" y="189.72" width="64" height="24" transform="rotate(-36 77.7485 189.72)" fill="#111212"/>
<rect x="132.762" y="149.75" width="64" height="24" transform="rotate(-36 132.762 149.75)" fill="#111212"/>
<rect x="187.775" y="109.781" width="64" height="24" transform="rotate(-36 187.775 109.781)" fill="#111212"/>
<rect x="-2.87549" y="282.906" width="64" height="24" transform="rotate(-36 -2.87549 282.906)" fill="#111212"/>
<rect x="52.1377" y="242.937" width="64" height="24" transform="rotate(-36 52.1377 242.937)" fill="#111212"/>
<rect x="107.151" y="202.968" width="64" height="24" transform="rotate(-36 107.151 202.968)" fill="#111212"/>
<rect x="162.164" y="162.998" width="64" height="24" transform="rotate(-36 162.164 162.998)" fill="#111212"/>
<rect x="0.638184" y="314.963" width="64" height="24" transform="rotate(-36 0.638184 314.963)" fill="#111212"/>
<rect x="55.6514" y="274.994" width="64" height="24" transform="rotate(-36 55.6514 274.994)" fill="#111212"/>
<rect x="110.665" y="235.024" width="64" height="24" transform="rotate(-36 110.665 235.024)" fill="#111212"/>
<rect x="165.678" y="195.055" width="64" height="24" transform="rotate(-36 165.678 195.055)" fill="#111212"/>
<rect x="30.0405" y="328.211" width="64" height="24" transform="rotate(-36 30.0405 328.211)" fill="#111212"/>
<rect x="85.0537" y="288.242" width="64" height="24" transform="rotate(-36 85.0537 288.242)" fill="#111212"/>
<rect x="140.067" y="248.272" width="64" height="24" transform="rotate(-36 140.067 248.272)" fill="#111212"/>
<rect x="195.08" y="208.303" width="64" height="24" transform="rotate(-36 195.08 208.303)" fill="#111212"/>
<rect x="88.5674" y="320.299" width="64" height="24" transform="rotate(-36 88.5674 320.299)" fill="#111212"/>
<rect x="143.581" y="280.33" width="64" height="24" transform="rotate(-36 143.581 280.33)" fill="#111212"/>
<rect x="198.594" y="240.36" width="64" height="24" transform="rotate(-36 198.594 240.36)" fill="#111212"/>
<rect x="117.97" y="333.547" width="64" height="24" transform="rotate(-36 117.97 333.547)" fill="#111212"/>
<rect x="172.983" y="293.578" width="64" height="24" transform="rotate(-36 172.983 293.578)" fill="#111212"/>
</g>
<path d="M36 18H196C206.217 18 214.5 26.2827 214.5 36.5V276.5C214.5 286.717 206.217 295 196 295H36C25.7827 295 17.5 286.717 17.5 276.5V36.5C17.5 26.2827 25.7827 18 36 18Z" stroke="#48494A" stroke-width="3"/>
</g>
<defs>
<filter id="filter0_d_5640_27310" x="0" y="0.5" width="232" height="312" filterUnits="userSpaceOnUse" color-interpolation-filters="sRGB">
<feFlood flood-opacity="0" result="BackgroundImageFix"/>
<feColorMatrix in="SourceAlpha" type="matrix" values="0 0 0 0 0 0 0 0 0 0 0 0 0 0 0 0 0 0 127 0" result="hardAlpha"/>
<feMorphology radius="4" operator="dilate" in="SourceAlpha" result="effect1_dropShadow_5640_27310"/>
<feOffset/>
<feGaussianBlur stdDeviation="6"/>
<feComposite in2="hardAlpha" operator="out"/>
<feColorMatrix type="matrix" values="0 0 0 0 1 0 0 0 0 1 0 0 0 0 1 0 0 0 0.15 0"/>
<feBlend mode="normal" in2="BackgroundImageFix" result="effect1_dropShadow_5640_27310"/>
<feBlend mode="normal" in="SourceGraphic" in2="effect1_dropShadow_5640_27310" result="shape"/>
</filter>
<clipPath id="clip0_5640_27310">
<path d="M16 36.5C16 25.4543 24.9543 16.5 36 16.5H196C207.046 16.5 216 25.4543 216 36.5V276.5C216 287.546 207.046 296.5 196 296.5H36C24.9543 296.5 16 287.546 16 276.5V36.5Z" fill="white"/>
</clipPath>
</defs>
</svg>
