<svg width="32" height="32" viewBox="0 0 32 32" fill="none" xmlns="http://www.w3.org/2000/svg">
<path d="M20.3636 15.4286C22.1745 15.4286 23.6255 13.9929 23.6255 12.2143C23.6255 10.4357 22.1745 9 20.3636 9C18.5527 9 17.0909 10.4357 17.0909 12.2143C17.0909 13.9929 18.5527 15.4286 20.3636 15.4286ZM11.6364 15.4286C13.4473 15.4286 14.8982 13.9929 14.8982 12.2143C14.8982 10.4357 13.4473 9 11.6364 9C9.82545 9 8.36364 10.4357 8.36364 12.2143C8.36364 13.9929 9.82545 15.4286 11.6364 15.4286ZM11.6364 17.5714C9.09455 17.5714 4 18.825 4 21.3214V22.9286C4 23.5179 4.49091 24 5.09091 24H18.1818C18.7818 24 19.2727 23.5179 19.2727 22.9286V21.3214C19.2727 18.825 14.1782 17.5714 11.6364 17.5714ZM20.3636 17.5714C20.0473 17.5714 19.6873 17.5929 19.3055 17.625C19.3273 17.6357 19.3382 17.6571 19.3491 17.6679C20.5927 18.5571 21.4545 19.7464 21.4545 21.3214V22.9286C21.4545 23.3036 21.3782 23.6679 21.2582 24H26.9091C27.5091 24 28 23.5179 28 22.9286V21.3214C28 18.825 22.9055 17.5714 20.3636 17.5714Z" fill="#F5F5F5"/>
</svg>
