<svg width="16" height="20" viewBox="0 0 16 20" fill="none" xmlns="http://www.w3.org/2000/svg">
<path d="M11.6133 5.27881C11.7923 5.27881 12.0975 5.30729 12.5288 5.36426C12.9601 5.42122 13.4321 5.58398 13.9448 5.85254C14.4657 6.11296 14.9377 6.54834 15.3608 7.15869C15.3364 7.18311 15.2184 7.27262 15.0068 7.42725C14.7952 7.57373 14.5592 7.79346 14.2988 8.08643C14.0384 8.37126 13.8105 8.73747 13.6152 9.18506C13.4199 9.62451 13.3223 10.1494 13.3223 10.7598C13.3223 11.4596 13.4443 12.0537 13.6885 12.542C13.9408 13.0303 14.2297 13.425 14.5552 13.7261C14.8888 14.019 15.1818 14.2347 15.4341 14.373C15.6945 14.5114 15.8328 14.5846 15.8491 14.5928C15.841 14.6253 15.7352 14.9142 15.5317 15.4595C15.3364 16.0047 15.0109 16.611 14.5552 17.2783C14.1564 17.8561 13.7251 18.3892 13.2612 18.8774C12.8055 19.3657 12.2562 19.6099 11.6133 19.6099C11.182 19.6099 10.828 19.5488 10.5513 19.4268C10.2746 19.2965 9.98975 19.1704 9.69678 19.0483C9.40381 18.9181 9.00911 18.853 8.5127 18.853C8.03255 18.853 7.62972 18.9181 7.3042 19.0483C6.98682 19.1785 6.68164 19.3088 6.38867 19.439C6.10384 19.5692 5.76611 19.6343 5.37549 19.6343C4.78141 19.6343 4.26058 19.3983 3.81299 18.9263C3.3654 18.4543 2.9056 17.8887 2.43359 17.2295C1.88835 16.4482 1.42041 15.4961 1.02979 14.373C0.647298 13.2419 0.456055 12.1025 0.456055 10.9551C0.456055 9.72624 0.687988 8.69678 1.15186 7.8667C1.61572 7.02848 2.2098 6.39779 2.93408 5.97461C3.6665 5.54329 4.42334 5.32764 5.20459 5.32764C5.61963 5.32764 6.01025 5.39681 6.37646 5.53516C6.74268 5.66536 7.08447 5.79964 7.40186 5.93799C7.72738 6.07633 8.02035 6.14551 8.28076 6.14551C8.53304 6.14551 8.82601 6.07227 9.15967 5.92578C9.49333 5.7793 9.86768 5.63688 10.2827 5.49854C10.6978 5.35205 11.1413 5.27881 11.6133 5.27881ZM10.9419 3.72852C10.6245 4.111 10.2257 4.43245 9.74561 4.69287C9.26546 4.94515 8.80973 5.07129 8.37842 5.07129C8.2889 5.07129 8.20345 5.06315 8.12207 5.04688C8.11393 5.02246 8.10579 4.9777 8.09766 4.9126C8.08952 4.84749 8.08545 4.77832 8.08545 4.70508C8.08545 4.2168 8.19124 3.74479 8.40283 3.28906C8.61442 2.8252 8.85449 2.44271 9.12305 2.1416C9.46484 1.7347 9.89616 1.39697 10.417 1.12842C10.9378 0.859863 11.4342 0.717448 11.9062 0.701172C11.9307 0.806966 11.9429 0.933105 11.9429 1.07959C11.9429 1.56787 11.8493 2.04395 11.6621 2.50781C11.4749 2.96354 11.2349 3.37044 10.9419 3.72852Z" fill="#F5F5F5"/>
</svg>
