<svg xmlns="http://www.w3.org/2000/svg" id="_레이어_1" viewBox="0 0 160 160" width="160" height="160"><defs><style>.st0{fill:#3d4054;stroke:#3d4054;stroke-miterlimit:10}</style></defs><path d="M136.97 94.09l-12.6-6.81c-.57-.3-1.24-.4-1.88-.25-.24.05-.51.13-.81.22l.52.28c.13.08 5.29 3.6 1.47 12.19s-9.89 7.12-9.95 7.1l-.62-.22c.17.36.33.67.47.91.27.46.68.81 1.17.99l13.67 4.85s4.94 1.66 9.03-7.52c4.08-9.19-.46-11.74-.46-11.74z" class="st0"/><path d="M120.63 88.55L93.34 74.1c.17 3.02-.42 6.7-2.37 11.09s-4.29 7.29-6.65 9.19l29.01 10.57s5.24 1.41 8.54-6.02-1.26-10.37-1.26-10.37z" class="st0"/><path d="M86.62 64.7l-1.12-.64c2.3 3.72 3.99 9.86.06 18.71-3.94 8.86-9.63 11.71-13.92 12.5l1.21.4s10.05 2.72 16.29-11.31c6.24-14.03-2.52-19.67-2.52-19.67z" class="st0"/><path d="M80.42 61.39L56.9 47.98c1.55 5.88.8 13.43-2.53 20.94s-8.44 13.12-13.84 15.91l25.72 8.47s11.07 3.12 17.49-11.33-3.31-20.58-3.31-20.58z" class="st0"/><path d="M44.47 38.47l3.86 1.72c7.54 3.35 9.33 15.81 3.99 27.82S36.54 87.04 29 83.69l-3.86-1.72c-7.54-3.35-9.33-15.81-3.99-27.82s15.78-19.03 23.32-15.68zM25.91 79.22c5.99 2.66 14.66-3.76 19.36-14.35 4.7-10.59 3.67-21.32-2.32-23.99s-14.66 3.76-19.36 14.35c-4.7 10.59-3.67 21.32 2.32 23.99z" class="st0"/></svg>