<svg xmlns="http://www.w3.org/2000/svg" id="_레이어_1" viewBox="0 0 160 160" width="160" height="160"><defs><style>.st0{fill:none}.st1{fill:#a36400}.st2{fill:#b57900}.st3{fill:#daa900}.st4{fill:#d29200}.st5{fill:#ffcd2e}</style></defs><path d="M19.32 115.03V44.97L80 9.94l60.68 35.03v70.06L80 150.06l-60.68-35.03z" class="st4"/><path d="M80 10.51l60.18 34.74v69.49L80 149.48l-60.18-34.74V45.26L80 10.51m0-1.15L18.82 44.68v70.64L80 150.64l61.18-35.32V44.68L80 9.36z" class="st4"/><path d="M133.25 49.26L80 18.52 26.75 49.26v61.48L80 141.48l53.25-30.74V49.26z" class="st0"/><path d="M133.25 49.26l7.93-4.58L80 9.36v9.16l53.25 30.74z" class="st5"/><path d="M80 18.52V9.36L18.82 44.68l7.93 4.58L80 18.52z" class="st4"/><path d="M80 141.48l-53.25-30.74V49.26l-7.93-4.58v70.64L80 150.64v-9.16z" class="st2"/><path d="M80 141.48v9.16l61.18-35.32-7.93-4.58L80 141.48z" class="st4"/><path d="M133.25 110.74l7.93 4.58V44.68l-7.93 4.58v61.48zm-105.5-.58V49.84L80 19.67l52.25 30.17v60.32L80 140.33l-52.25-30.17z" class="st3"/><path d="M80 20.83l51.25 29.59v59.17L80 139.18l-51.25-29.59V50.42L80 20.83m0-2.31L26.75 49.26v61.48L80 141.48l53.25-30.74V49.26L80 18.52z" class="st1"/></svg>