<svg width="32" height="32" viewBox="0 0 32 32" fill="none" xmlns="http://www.w3.org/2000/svg">
<path d="M21.6134 21.3333H10.3868C9.94354 21.334 9.5092 21.2091 9.13402 20.9731C8.75884 20.7372 8.45815 20.3998 8.26676 20C8.04272 19.5257 7.95642 18.998 8.01772 18.477C8.07901 17.956 8.28542 17.4627 8.61343 17.0533L14.2268 10.2533C14.447 9.99917 14.7194 9.79533 15.0254 9.65562C15.3313 9.51591 15.6637 9.4436 16.0001 9.4436C16.3364 9.4436 16.6689 9.51591 16.9748 9.65562C17.2808 9.79533 17.5531 9.99917 17.7734 10.2533L23.3868 17.0533C23.7148 17.4627 23.9212 17.956 23.9825 18.477C24.0438 18.998 23.9575 19.5257 23.7334 20C23.542 20.3998 23.2413 20.7372 22.8662 20.9731C22.491 21.2091 22.0566 21.334 21.6134 21.3333Z" fill="white"/>
</svg>
