<svg width="28" height="28" viewBox="0 0 28 28" fill="none" xmlns="http://www.w3.org/2000/svg">
<path d="M7.125 3L12.0555 7.93046L7.93046 12.0555L3 7.125V3H7.125Z" fill="#F5F5F5"/>
<path d="M12.2223 19.9027L14.2848 21.9652L12.3402 23.9098L9.1875 20.757L7.12185 22.8227C7.12394 22.8606 7.125 22.899 7.125 22.9375C7.125 24.0765 6.20159 25 5.0625 25C3.92341 25 3 24.0765 3 22.9375C3 21.7985 3.92341 20.875 5.0625 20.875C5.10103 20.875 5.13931 20.8761 5.17731 20.8782L7.24296 18.8125L4.09023 15.6598L6.03478 13.7152L8.09728 15.7777L20.875 3H25V7.125L12.2223 19.9027Z" fill="#F5F5F5"/>
<path d="M22.9372 24.9999C21.7982 24.9999 20.8747 24.0764 20.8747 22.9374C20.8747 22.8989 20.8758 22.8605 20.8779 22.8226L16.8677 18.8124L21.9649 13.7151L23.9095 15.6596L20.7567 18.8124L22.8224 20.878C22.8603 20.876 22.8987 20.8749 22.9372 20.8749C24.0763 20.8749 24.9997 21.7983 24.9997 22.9374C24.9997 24.0764 24.0763 24.9999 22.9372 24.9999Z" fill="#F5F5F5"/>
</svg>
