<svg xmlns="http://www.w3.org/2000/svg" id="_레이어_1" viewBox="0 0 160 160" width="160" height="160"><defs><style>.st0{fill:#3d4054;stroke:#3d4054;stroke-miterlimit:10}</style></defs><path d="M77.53 29.6a7.178 7.178 0 0 1 8.73 5.22l2.22 8.83 28.21 3.87V23.55c0-2.59-2.1-4.69-4.69-4.69H60.25a4.69 4.69 0 0 0-4.69 4.69v11.58l21.97-5.52z" class="st0"/><path d="M61.58 128.45l10.93-79.73c.49-3.54 3.55-6.22 7.12-6.22.33 0 .66.02.98.07l5.21.71-1.97-7.85a4.694 4.694 0 0 0-5.69-3.41L27.98 44.64a4.694 4.694 0 0 0-3.41 5.69l19.62 78.04a4.694 4.694 0 0 0 5.69 3.41l11.67-2.93c.01-.14.02-.27.04-.41z" class="st0"/><rect width="61.13" height="89.85" x="69.23" y="48.15" class="st0" rx="4.69" ry="4.69" transform="rotate(7.81 99.737 93.053)"/></svg>