<?xml version="1.0" encoding="UTF-8"?>
<svg id="_레이어_1" data-name="레이어_1" xmlns="http://www.w3.org/2000/svg" version="1.1" viewBox="0 0 160 160">
  <!-- Generator: Adobe Illustrator 29.8.2, SVG Export Plug-In . SVG Version: 2.1.1 Build 3)  -->
  <defs>
    <style>
      .st0 {
        fill: #3d4054;
      }
    </style>
  </defs>
  <path class="st0" d="M80,42.48c-24.45,0-44.27,14.95-44.27,33.38,0,9.93,5.75,18.85,14.88,24.97,7.82,5.24,18.11,8.42,29.39,8.42,24.45,0,44.27-14.95,44.27-33.38s-19.82-33.38-44.27-33.38ZM59.92,81.21c-2.96,0-5.35-2.4-5.35-5.35s2.4-5.35,5.35-5.35,5.35,2.4,5.35,5.35-2.4,5.35-5.35,5.35ZM80,81.21c-2.96,0-5.35-2.4-5.35-5.35s2.4-5.35,5.35-5.35,5.35,2.4,5.35,5.35-2.4,5.35-5.35,5.35ZM100.08,81.21c-2.96,0-5.35-2.4-5.35-5.35s2.4-5.35,5.35-5.35,5.35,2.4,5.35,5.35-2.4,5.35-5.35,5.35Z"/>
  <path class="st0" d="M35.73,117.52c8.43-6.32,14.49-14.19,12.95-27.01l17.03,7.29c-.75,8.22-10.74,14.79-29.98,19.72Z"/>
</svg>