<svg width="9" height="17" viewBox="0 0 9 17" fill="none" xmlns="http://www.w3.org/2000/svg">
<path d="M8.99984 11.925V14.275L4.84984 16.775C4.66651 16.8916 4.47484 16.9416 4.27484 16.9249C4.07484 16.9083 3.89984 16.8416 3.74984 16.725C3.59984 16.6083 3.48317 16.4626 3.39984 16.288C3.31651 16.1133 3.29984 15.9173 3.34984 15.7L4.44984 10.975L0.774841 7.79995C0.608174 7.64995 0.504174 7.47895 0.462841 7.28695C0.421507 7.09495 0.433841 6.90762 0.499841 6.72495C0.565841 6.54228 0.665841 6.39228 0.799841 6.27495C0.933841 6.15762 1.11717 6.08262 1.34984 6.04995L6.19984 5.62495L8.07484 1.17495C8.15817 0.974951 8.28751 0.824951 8.46284 0.724951C8.63817 0.624951 8.81717 0.574951 8.99984 0.574951V4.12495V11.925Z" fill="#F5F5F5"/>
</svg>
