<svg width="28" height="28" viewBox="0 0 28 28" fill="none" xmlns="http://www.w3.org/2000/svg">
<path d="M23.719 4.99527C23.6521 4.92496 23.5716 4.86903 23.4824 4.83087C23.3931 4.79272 23.2971 4.77315 23.2 4.77337H23.1943C22.9562 4.82289 22.7419 4.90639 22.5514 5.02385L22.56 5.01908C22.2375 5.18162 21.8959 5.36385 21.5352 5.56575C21.1433 5.78129 20.732 5.95953 20.3067 6.09813L20.2543 6.11337C19.8148 6.26912 19.3529 6.35212 18.8867 6.35908H18.8829L18.8352 6.36004C18.48 6.36004 18.1438 6.27813 17.8448 6.13147L17.8581 6.13718C17.0801 5.75558 16.277 5.42752 15.4543 5.15527L15.3076 5.11242C14.5719 4.88561 13.8061 4.77161 13.0362 4.77432H12.9743H12.9771C11.2353 4.85205 9.53665 5.34093 8.02 6.20099L8.07429 6.17242C7.69333 6.36099 7.42476 6.5067 7.24952 6.61432L7.07524 5.33718C7.37162 5.08036 7.57929 4.73648 7.6686 4.35462C7.75792 3.97276 7.72432 3.57244 7.5726 3.21081C7.42088 2.84918 7.15879 2.54473 6.82375 2.34091C6.48871 2.13709 6.09784 2.04432 5.70694 2.07585C5.31604 2.10738 4.9451 2.26159 4.64706 2.51648C4.34901 2.77136 4.13911 3.11389 4.04731 3.49516C3.95551 3.87643 3.98651 4.27696 4.13587 4.63956C4.28524 5.00217 4.54534 5.30833 4.87905 5.51432L4.88667 5.51908L7.40095 23.981C7.47619 24.5191 7.93333 24.9286 8.48571 24.9296C8.53905 24.9296 8.59238 24.9261 8.64381 24.9191L8.63809 24.92C8.78178 24.9012 8.92031 24.8541 9.0457 24.7814C9.17109 24.7088 9.28086 24.612 9.36869 24.4968C9.45651 24.3815 9.52065 24.25 9.55741 24.1098C9.59417 23.9696 9.60282 23.8236 9.58286 23.68L9.58381 23.6858L8.57238 16.2658C10.0247 15.4557 11.6424 14.987 13.3029 14.8953L13.3324 14.8943H13.341C13.9305 14.8943 14.499 14.9877 15.0305 15.161L14.9914 15.1505C15.4713 15.2939 15.9348 15.4873 16.3743 15.7277L16.3371 15.7086C16.6933 15.9096 17.1105 16.0981 17.5448 16.2505L17.6 16.2677C18.0276 16.4277 18.5219 16.521 19.0371 16.5248H19.039C20.5753 16.4276 22.0643 15.9558 23.3762 15.1505L23.3352 15.1743C23.5105 15.0886 23.6629 14.9816 23.7924 14.8534C23.8975 14.7278 23.9494 14.5662 23.9371 14.4029V14.4048V5.51432C23.9375 5.41779 23.9182 5.3222 23.8806 5.23332C23.8429 5.14444 23.7877 5.06411 23.7181 4.99718L23.719 4.99527Z" fill="#F5F5F5"/>
</svg>
