<svg width="9" height="17" viewBox="0 0 9 17" fill="none" xmlns="http://www.w3.org/2000/svg">
<path d="M0.000159264 11.35V13.7L4.15016 16.2C4.33349 16.3167 4.52516 16.3667 4.72516 16.35C4.92516 16.3333 5.10016 16.2667 5.25016 16.15C5.40016 16.0333 5.51683 15.8877 5.60016 15.713C5.68349 15.5383 5.70016 15.3423 5.65016 15.125L4.55016 10.4L8.22516 7.225C8.39183 7.075 8.49583 6.904 8.53716 6.712C8.57849 6.52 8.56616 6.33267 8.50016 6.15C8.43416 5.96733 8.33416 5.81733 8.20016 5.7C8.06616 5.58267 7.88283 5.50767 7.65016 5.475L2.80016 5.05L0.925159 0.6C0.841826 0.4 0.712492 0.25 0.537159 0.15C0.361826 0.0499999 0.182826 0 0.000159264 0V3.55V11.35Z" fill="#F5F5F5"/>
</svg>
