<?xml version="1.0" encoding="UTF-8"?>
<svg id="_레이어_1" xmlns="http://www.w3.org/2000/svg" version="1.1" viewBox="0 0 160 160">
  <!-- Generator: Adobe Illustrator 29.8.2, SVG Export Plug-In . SVG Version: 2.1.1 Build 3)  -->
  <defs>
    <style>
      .st0 {
        fill: #3d4054;
      }
    </style>
  </defs>
  <path class="st0" d="M37.91,116.14c1.75,3.17,4.05,5.98,7.1,7.97,3.44,2.24,7.49,3.33,11.51,3.91,1.07.15,2.11.38,3.17.14.97-.21,2.04-.34,2.88-.91,1.61-1.1,3.06-2.63,4.3-4.12,2.62-3.14,4.28-6.86,4.37-10.98.12-5.75-1.22-11.4-2.16-17.03-.15-.91-1.54-.52-1.39.38.78,4.71,1.84,9.4,2.07,14.18.1,2.02.08,4.04-.44,6-.49,1.81-1.33,3.49-2.39,5.02s-2.43,2.99-3.86,4.27c-.7.62-1.36,1.27-2.3,1.48s-1.85.45-2.84.32c-3.92-.51-7.85-1.37-11.3-3.36-3.27-1.88-5.67-4.72-7.47-8-.45-.81-1.69-.09-1.24.73h0Z"/>
  <path class="st0" d="M39.06,115.55c-.25-.46-.56-.93-1.04-1.17-.59-.29-1.22-.18-1.77.13-.45.25-.82.6-1.32.75-.46.13-.95.16-1.42.07-2.14-.37-3.64-2.43-4.71-4.15s-1.82-3.8-1.09-5.81c.28-.78.82-1.49,1.55-1.9.92-.52,2.08-.51,3.09-.32,1.11.21,2.16.64,3.09,1.28.46.31.88.68,1.27,1.09.17.18.34.37.49.56.14.18.41.48.45.69v-.38l-.03.08.5-.5-.04.02h.38l-.04-.02.32.19-.03-.04.19.32v-.04c-.12.27-.23.54-.34.81l.03-.02c.32-.22.47-.63.26-.98-.18-.31-.67-.48-.98-.26l-.03.02c-.28.2-.4.47-.33.81.08.39.49.66.87.61.45-.07.75-.49.68-.94,0-.02,0-.03,0-.05-.13-.57-.66-1.14-1.03-1.58-.8-.92-1.77-1.67-2.86-2.22-2.22-1.11-5.24-1.57-7.29.12-1.88,1.55-2.23,4.3-1.56,6.51.39,1.29,1.07,2.47,1.85,3.57s1.59,2.09,2.65,2.88c1.17.88,2.64,1.33,4.1,1.08.75-.13,1.32-.51,1.94-.91.16-.1.37-.25.54-.18.19.09.34.43.45.61.45.81,1.69.09,1.24-.73h-.02Z"/>
  <path class="st0" d="M35.33,112.38c-.06-.55-.2-1.04-.44-1.54-.21-.44-.49-.84-.82-1.19-.65-.71-1.49-1.22-2.42-1.48-.52-.14-1.08-.2-1.62-.14-.2.02-.36.07-.51.21-.12.12-.22.33-.21.51s.07.38.21.51c.13.12.32.23.51.21.31-.03.62-.03.93.01l-.19-.03c.36.05.71.15,1.04.29l-.17-.07c.36.15.69.35,1,.59l-.15-.11c.3.23.56.5.8.79l-.11-.15c.22.29.41.6.55.94l-.07-.17c.13.31.22.63.26.96l-.03-.19v.06c.02.2.06.36.21.51.12.12.33.22.51.21s.38-.07.51-.21c.12-.13.23-.32.21-.51h0ZM69.13,81.17c-3.15-3.89-6.51-7.97-11.21-10.02-4.75-2.07-10.52-2-15.56-1.28-1.16.17-2.31.38-3.45.65s-2.44.54-3.47,1.16c-1.99,1.19-3.92,2.59-5.72,4.06s-3.57,3.23-4.87,5.24c-1.43,2.21-2.2,4.71-2.53,7.3-.39,3.14-.33,6.43-.02,9.58.3,2.97.99,5.87,2.52,8.46.47.8,1.72.07,1.24-.73-2.64-4.44-2.75-10.11-2.49-15.14.13-2.62.59-5.24,1.83-7.58,1.04-1.96,2.51-3.64,4.16-5.12s3.64-2.88,5.57-4.16c.87-.58,1.69-1,2.7-1.3,1.14-.34,2.3-.59,3.47-.8,4.74-.85,10.16-1.04,14.78.49,5.15,1.7,8.74,6.14,12.03,10.21.58.72,1.59-.3,1.02-1.02Z"/>
  <path class="st0" d="M64.77,81.8c.16.16.31.34.45.52l-.11-.15c.2.26.38.53.53.82.08.15.26.29.43.33.18.04.4.04.55-.07.53-.4,1.06-.8,1.58-1.2.08-.05.15-.11.2-.19.06-.07.11-.15.13-.24.05-.17.03-.4-.07-.55s-.25-.29-.43-.33-.4-.04-.55.07c-.53.4-1.06.8-1.58,1.2l.98.26c-.29-.54-.67-1.04-1.09-1.48-.13-.13-.33-.21-.51-.21s-.39.08-.51.21-.22.32-.21.51.07.37.21.51h0ZM44.37,74.12c5.2,3.57,8.61,9.05,11.86,14.32l.26-.98c-2.63,1.56-5.13,3.3-7.51,5.22-.3.25-.25.76,0,1.02.3.3.72.24,1.02,0,2.28-1.84,4.7-3.51,7.22-5,.33-.19.46-.65.26-.98-3.4-5.49-6.96-11.12-12.38-14.83-.77-.52-1.49.72-.73,1.24h0Z"/>
  <path class="st0" d="M56.75,88.82c3.02-1.9,6.23-3.48,9.57-4.69.37-.13.61-.49.5-.88-.1-.35-.52-.64-.88-.5-3.47,1.25-6.8,2.87-9.92,4.83-.33.21-.46.64-.26.98s.65.47.98.26h0Z"/>
  <path class="st0" d="M66.3,84.02l2.67-1.35c.16-.08.29-.27.33-.43.05-.17.03-.4-.07-.55s-.25-.29-.43-.33c-.19-.04-.38-.02-.55.07l-2.67,1.35c-.16.08-.29.27-.33.43-.05.17-.03.4.07.55s.25.29.43.33c.2.04.37.02.55-.07Z"/>
  <path class="st0" d="M68.07,82.87c.14.06.28.11.42.17l.21.09s.07.03.11.04c.12.05-.08-.03.04.02.3.13.6.26.9.4.57.27,1.14.55,1.7.85,1.12.61,2.21,1.29,3.25,2.04.62.45,1.07.79,1.66,1.28.29.24.74.3,1.02,0,.24-.27.31-.76,0-1.02-2.06-1.73-4.33-3.19-6.76-4.34-.71-.33-1.43-.64-2.16-.93-.35-.14-.8.15-.88.5-.09.41.13.74.5.88v.02h0Z"/>
  <path class="st0" d="M76.9,87.27c-5.84,2.43-12.03,4.5-18.37,5.02-2.69.22-5.43.28-8.05,1s-4.65,2.13-6.42,4.13c-2.26,2.54-4.22,5.34-5.89,8.29-.46.81.79,1.53,1.24.73,1.45-2.56,3.11-4.99,5.01-7.24,1.8-2.13,3.7-3.77,6.44-4.52,2.6-.71,5.31-.74,7.97-.97,2.94-.25,5.82-.84,8.66-1.63,3.33-.93,6.59-2.08,9.78-3.41.84-.35.47-1.74-.38-1.39h.01Z"/>
  <path class="st0" d="M49.94,93.5s.04-.04.06-.05l-.15.11c.06-.04.12-.08.19-.11l-.17.07c.07-.03.14-.04.21-.05l-.19.03h.03c-.12-.45-.24-.9-.36-1.34-1.05.73-2.02,1.57-2.88,2.51-.24.26-.46.53-.68.8-.12.15-.21.3-.21.51,0,.18.08.39.21.51s.32.22.51.21c.18,0,.39-.06.51-.21.63-.79,1.33-1.52,2.1-2.18.22-.19.44-.37.67-.54l-.15.11c.21-.17.43-.33.66-.48.13-.09.23-.19.29-.34s.09-.32.04-.47c-.04-.12-.1-.23-.19-.32-.11-.12-.34-.23-.51-.21-.24.03-.4.07-.61.16-.14.06-.27.16-.38.27-.13.12-.21.33-.21.51s.08.39.21.51c.3.28.72.27,1.02,0h-.02,0Z"/>
  <path class="st0" d="M39.15,76.5c3.32,3.7,5.96,7.94,7.81,12.55.52,1.31.98,2.64,1.37,3.99.26.89,1.65.51,1.39-.38-1.44-4.93-3.73-9.62-6.78-13.75-.87-1.18-1.79-2.32-2.77-3.41-.62-.69-1.63.33-1.02,1.02v-.02Z"/>
  <path class="st0" d="M45.5,95.57c-1.85,2.15-4.47,3.52-7.3,3.75l.72.72c-.44-6.45-.35-12.93.27-19.37.19-1.96.31-4.04,1.32-5.78.47-.8-.77-1.53-1.24-.73-1.02,1.75-1.25,3.77-1.45,5.75-.22,2.21-.39,4.43-.49,6.65-.2,4.49-.15,8.98.15,13.46.02.36.31.75.72.72,3.2-.25,6.21-1.73,8.32-4.17.6-.7-.41-1.72-1.02-1.02v.02ZM33.04,79.74c-3.82,6.82-5.22,14.82-3.99,22.53l.69-.91c-.74.02-1.39-.78-1.82-1.3-.5-.61-.9-1.33-1.17-2.07-.62-1.65-.72-3.44-.49-5.18.45-3.39,1.93-6.68,3.88-9.45,1.07-1.53,2.34-2.9,3.74-4.13.7-.61-.32-1.62-1.02-1.02-2.81,2.46-5.03,5.53-6.48,8.97-1.52,3.61-2.43,7.88-.85,11.62.68,1.61,2.21,4.04,4.21,4,.51-.01.77-.45.69-.91-1.17-7.32.22-14.96,3.84-21.42.45-.81-.79-1.53-1.24-.73h0ZM57.16,105.27c.08.73.46,1.28,1.02,1.72.27.21.56.41.84.61.06.04.11.08.17.12.1.08,0-.01-.02-.02.03.02.05.04.08.06.13.11.26.23.37.36.03.03.16.21.07.08.05.06.09.13.13.19.09.15.18.31.25.47-.07-.16.03.1.04.13.02.07.05.15.07.23l.06.26s.02.14,0-.02v.76s.03-.17,0-.02l-.06.28c-.02.07-.04.15-.07.22-.02.05-.1.25-.03.09-.07.15-.15.31-.24.45-.05.08-.1.16-.16.23.1-.13-.06.06-.09.09-.12.13-.25.25-.39.37.11-.09.04-.03,0,0-.05.03-.09.06-.14.1-.08.05-.17.1-.25.14.02-.01.13-.05,0,0-.12.04.02,0,.08.01.25.07.41.39.25.63.21-.31.07-.81-.26-.98-.34-.19-.78-.08-.98.26-.39.58.04,1.35.67,1.5.53.12,1.04-.17,1.45-.48.71-.54,1.24-1.27,1.5-2.13s.21-1.75-.1-2.55c-.18-.45-.41-.85-.72-1.23-.26-.32-.59-.57-.92-.81-.16-.11-.31-.22-.47-.33-.03-.02-.06-.04-.08-.06-.02-.01-.18-.13-.09-.07s-.04-.03-.05-.04c-.04-.03-.08-.06-.11-.1-.07-.06-.14-.13-.21-.2l-.06-.07c.06.08.07.1.03.03l-.03-.04s-.05-.08-.07-.12l-.02-.04c-.03-.07-.03-.06.02.04-.02.01-.08-.42-.05-.13-.04-.37-.3-.74-.72-.72-.35.02-.76.32-.72.72h0ZM46.02,103.44c-.3-.05-.54-.01-.78.17-.21.16-.37.45-.33.72s.12.48.36.62c.23.13.5.12.73,0,.85-.46,1.73-.89,2.61-1.29.14-.06.29-.13.44-.19-.13.05.05-.02.08-.03.08-.03.17-.07.25-.1.59-.24,1.18-.46,1.78-.67.3-.1.59-.21.89-.29l.26-.06c.16-.03-.08,0,.07,0,.03,0,.3.02.13-.01.08.01.17.04.25.07.35.13.8-.15.88-.5.09-.41-.12-.74-.5-.88-.71-.27-1.48,0-2.16.23-.64.22-1.28.45-1.91.71-1.3.52-2.56,1.11-3.79,1.78l1.08.62c-.05.24-.17.41-.37.49h-.38.04c.37.07.79-.09.88-.5.08-.35-.11-.81-.5-.88h-.01ZM62.65,100.89l.4-.06c.06,0,.11-.02.17-.02h-.08.11c.24-.03.47-.05.71-.07.49-.04.97-.06,1.46-.07s.96.01,1.43.05c.25.02.5.04.74.07.11.01.23.01.34.04-.17-.04,0,0,.04,0l.23.03.19-1.41c-.06,0-.13-.02-.19-.02-.17-.02-.39.09-.51.21s-.22.33-.21.51.07.38.21.51c.15.14.31.19.51.21.06,0,.13.02.19.02.16.02.4-.09.51-.21s.18-.25.2-.41c.04-.32-.16-.73-.52-.79-2.11-.32-4.22-.31-6.32.04-.37.06-.61.54-.5.88.13.4.49.57.88.5h0ZM49.95,95.15c2.13-.13,4.12.68,6.09,1.37s4.05,1.27,6.18.93c1.14-.18,2.22-.59,3.25-1.08.51-.24,1.01-.51,1.5-.8.19-.11.44-.33.66-.37.26-.05.42.17.64.31,1.58.98,3.59.4,4.98-.64,1.91-1.43,2.95-3.75,3.23-6.07.11-.92-1.33-.91-1.44,0-.22,1.84-1.13,3.83-2.67,4.94-.68.49-1.53.88-2.38.84s-1.36-.83-2.18-.86c-.94-.03-1.87.79-2.67,1.2-.95.48-1.94.88-2.99,1.08-2.01.39-3.97-.24-5.85-.91-2.06-.73-4.15-1.53-6.38-1.39-.92.06-.93,1.5,0,1.44h.03,0ZM96.64,106.54c.05.44.06.88.04,1.32,0,.22-.03.45-.06.67v.08s.02-.15,0-.06c0,.05-.02.1-.02.15l-.06.33c-.09.45-.25.92-.21,1.39.04.43.17.84.44,1.19s.58.64.98.83c.44.21.92.32,1.41.33.84.02,1.71-.19,2.46-.56.35-.18.7-.42.96-.71.14-.16.27-.33.36-.53.13-.27.19-.51.23-.81.02-.17-.1-.39-.21-.51-.12-.12-.33-.22-.51-.21s-.38.07-.51.21c-.14.15-.18.31-.21.51.03-.26,0,0-.03.06-.01.03-.03.07-.03.1.04-.18.05-.11.02-.04l-.09.15-.06.09c.11-.19.05-.06,0,0-.04.04-.08.09-.13.13-.03.02-.05.05-.08.07-.05.04-.14.08.03-.02-.13.08-.25.17-.38.24-.06.03-.11.06-.17.08-.03.02-.07.03-.1.05.2-.1.08-.03.03-.01-.14.05-.29.1-.43.14-.17.04-.34.08-.5.11-.03,0-.12.04-.15.02h.09-.1c-.1.01-.2.02-.29.02h-.44c-.08-.01-.06-.01.05,0-.02.04-.47-.13-.54-.14.19.05.09.04.03,0-.04-.02-.07-.04-.1-.06-.06-.03-.11-.07-.17-.1-.07-.05-.09-.11.02.02-.02-.03-.06-.05-.09-.08-.06-.05-.11-.11-.16-.17-.1-.11.1.14.02.02-.02-.03-.04-.06-.06-.1-.03-.05-.06-.11-.09-.17-.07-.13.05.17.01.03l-.03-.11-.03-.11c-.03-.13.01.19,0,.01,0-.03-.02-.26,0-.27v.09-.1c0-.05.02-.1.03-.15.04-.2.09-.39.13-.59.18-.93.24-1.88.14-2.82-.02-.2-.07-.36-.21-.51-.14-.13-.32-.21-.51-.21-.36.02-.76.32-.72.72h0ZM89.49,100.98h-.03c.11.05.21.11.32.17l-.02-.02.19.32c.13.31-.06.51-.26.63-.06.02-.07.03-.02.01.04,0,.08-.01.13-.02.06,0,.13-.02.19-.03.21-.03-.15.02.06,0,.28-.03.55-.07.83-.09.55-.05,1.11-.08,1.66-.1,1.11-.02,2.22.03,3.33.16.38.04.74-.36.72-.72-.02-.43-.32-.67-.72-.72-1.32-.15-2.64-.2-3.97-.14-.66.03-1.32.09-1.98.18-.4.05-.81.06-1.12.36-.17.17-.27.4-.28.64,0,.2.08.39.22.53.11.11.22.15.36.21.16.07.41.01.55-.07.15-.09.29-.26.33-.43.04-.18.03-.39-.07-.55s-.25-.25-.43-.33h0ZM102.94,100.34c.36-.25.64-.25.83,0,.21.16.24.4.1.71l-.43.33c1.06-.45,2.17-.77,3.31-.97.11-.02.22-.04.32-.05l.2-.03c.05,0,.2-.05,0,0,.22-.06.48-.06.7-.08s.47-.03.7-.04c.38-.02.74-.32.72-.72-.02-.38-.32-.74-.72-.72-1.88.08-3.75.46-5.49,1.17-.1.04-.23.08-.31.13-.14.09-.24.21-.31.37-.1.24-.08.51.05.74.11.19.32.36.54.41.3.07.56-.02.79-.21.29-.24.27-.77,0-1.02-.31-.28-.71-.26-1.02,0l.02-.02Z"/>
  <path class="st0" d="M83.36,103.01c.5,2.18,1,4.35,1.51,6.53.44,1.93.82,3.89,1.59,5.72,1.44,3.4,4.41,5.54,7.61,7.16,3.29,1.67,6.71,2.95,10.46,2.5,3.39-.41,6.64-1.97,8.93-4.52,2.57-2.87,3.93-6.71,3.7-10.56l-.91.69c1.64.56,3.44-.09,4.55-1.37,1.26-1.45,1.58-3.53,1.43-5.39s-.99-3.31-2.72-4.05c-2-.86-4.16-.35-6.17.19-.89.24-.51,1.63.38,1.39,2.62-.7,6.75-1.32,7.07,2.47.12,1.37-.01,2.88-.78,4.05s-2.08,1.76-3.38,1.32c-.43-.14-.94.24-.91.69.39,6.56-4.16,12.42-10.65,13.56-3.47.61-6.65-.44-9.73-1.95-2.94-1.44-5.91-3.25-7.37-6.31-.89-1.87-1.25-3.97-1.71-5.98l-1.51-6.53c-.21-.9-1.6-.52-1.39.38h0Z"/>
  <path class="st0" d="M84.67,100.5c-.73-.78,0-1.94.76-2.36.99-.54,2.14-.47,3.23-.56.91-.07,1.85-.26,2.5-.95.37-.4.39-.8,1.04-.63.52.13,1,.44,1.5.62,4.93,1.85,9.58-1.84,14.37-2.33l-.69-.53c.15.6.07,1.14-.24,1.68-.29.51.2,1.29.81,1.06.78-.29,1.56-.59,2.34-.88.64-.24,1.56-.79,2.26-.77.44.01.4.35.43.71l.09,1.34c.06.89.13,1.78.19,2.68s1.5.93,1.44,0c-.08-1.19-.17-2.38-.25-3.57-.06-.88-.06-1.91-.94-2.39-.8-.44-1.72-.09-2.5.2-1.15.43-2.3.87-3.44,1.3l.81,1.06c.5-.87.62-1.81.39-2.79-.07-.28-.39-.56-.69-.53-2.29.24-4.39,1.06-6.55,1.8s-4.4,1.36-6.61.84c-.95-.22-1.78-.82-2.75-.96-.42-.06-.84-.03-1.21.18-.4.23-.52.58-.81.9-.59.67-1.75.54-2.55.59-.92.06-1.85.2-2.69.6-1.73.83-2.69,3.18-1.25,4.72.63.68,1.65-.34,1.02-1.02h0ZM86.25,115.46c-1.7.31-3.4-.51-4.67-1.59s-2.46-2.51-3.44-3.94c-1.75-2.57-2.89-5.7-1.82-8.76.51-1.44,1.49-2.66,2.88-3.31.84-.4.11-1.64-.73-1.24-3.05,1.44-4.38,5.11-3.94,8.31.26,1.92,1.06,3.72,2.1,5.34s2.33,3.24,3.8,4.52c1.72,1.5,3.88,2.48,6.19,2.06.91-.16.52-1.55-.38-1.39h.01Z"/>
  <path class="st0" d="M80.28,96.84c-1.1-5.34-.23-11.04,2.33-15.85.73-1.36,1.59-2.66,2.57-3.85.59-.71-.43-1.73-1.02-1.02-3.73,4.5-5.8,10.27-5.8,16.12,0,1.67.18,3.34.52,4.98.19.91,1.57.52,1.39-.38h.01Z"/>
  <path class="st0" d="M88.1,72.86c-1.03-.19-2.08-.03-3,.49s-1.56,1.35-1.91,2.31c-.18.5-.27,1.06-.24,1.6.02.38.32.74.72.72.37-.02.74-.32.72-.72,0-.21,0-.42.03-.63l-.03.19c.04-.32.13-.63.25-.93l-.07.17c.13-.3.29-.58.49-.83l-.11.15c.18-.23.38-.43.61-.61l-.15.11c.24-.18.5-.34.78-.46l-.17.07c.3-.13.62-.21.94-.26l-.19.03c.32-.04.65-.04.97,0l-.19-.03c.06,0,.11.02.17.03.19.04.38.03.55-.07.15-.09.29-.26.33-.43.08-.35-.11-.81-.5-.88v-.02Z"/>
  <path class="st0" d="M127.45,99.08c-1.4-1.28-1.16-3.51-1.39-5.23-.26-1.9-.78-3.75-1.5-5.52-1.46-3.56-3.67-6.75-6.18-9.65-2.45-2.83-5.23-5.75-8.72-7.27-1.88-.82-3.71-.94-5.73-.98-2.14-.04-4.09-1.04-6.22-1.04-1.08,0-2.17.2-3.17.6-.53.21-1.1.65-1.65.76s-1.08-.24-1.6-.36c-1.88-.43-3.11,1.22-3.88,2.68-.43.82.81,1.55,1.24.73.35-.68.77-1.5,1.47-1.88.78-.42,1.55.24,2.35.3.9.06,1.6-.47,2.39-.81.9-.38,1.87-.58,2.85-.57,2,0,3.85.95,5.85,1.03s3.9.09,5.8.99c3.27,1.55,5.89,4.38,8.21,7.09s4.57,6,5.89,9.51c.71,1.9,1.15,3.86,1.32,5.88.14,1.73.3,3.55,1.66,4.79.68.62,1.7-.39,1.02-1.02v-.03h0Z"/>
  <path class="st0" d="M115.45,118.78c1.41-.71,3.17.26,4.59.54,1.81.36,3.62-.01,5.36-.56,2.91-.91,5.9-2.47,7.15-5.42.68-1.59.75-3.32.05-4.92l-.62,1.08c2.06-.21,4.11-.51,6.15-.9.54-.1.69-.85.32-1.2-.67-.64-1.33-1.28-2-1.92l-.51,1.23c1.22-.03,3.03-.92,2.09-2.4-.41-.64-1.26-1.11-1.9-1.47-.74-.41-1.52-.74-2.31-1.03-2.82-1.06-6.38-1.81-7.8-4.81-.4-.84-1.64-.11-1.24.73,1.16,2.45,3.72,3.72,6.16,4.59,1.36.49,2.76.9,4.05,1.55.61.31,1.12.75,1.7,1.09.21.13.16.1-.04.19-.22.1-.48.12-.71.12-.61.01-.97.79-.51,1.23.67.64,1.33,1.28,2,1.92l.32-1.2c-1.91.37-3.83.66-5.76.85-.58.06-.85.56-.62,1.08.69,1.57.19,3.41-.76,4.76-1.05,1.49-2.77,2.44-4.44,3.08-1.89.71-4,1.35-6.02.89-1.82-.41-3.61-1.24-5.42-.34-.83.42-.1,1.66.73,1.24h-.01ZM116.98,75.71c.05.03.07.06.1.11-.04-.05-.02-.09,0,.02,0-.02-.03-.11-.01-.02s0-.02,0-.05c-.01-.1.02.12,0,.02h-.01s.04-.08.07-.11c0-.01.11-.15.07-.1-.05.06.05-.05.06-.07.02-.03.05-.05.07-.08.07-.08.15-.16.22-.24.15-.16.3-.32.45-.49.58-.62,1.16-1.23,1.75-1.83s1.2-1.22,1.81-1.83c.15-.15.3-.29.44-.44.06-.05.11-.11.17-.16.03-.02.05-.05.08-.07.15-.13-.1.05.07-.05.03-.02.06-.03.09-.05.07-.06-.09.02,0,0,.03,0,.06-.02.09-.03-.1.04-.06,0,0,0,.17,0,0,0,0,0,0,0,.15.08,0,0,.04.02.21.15.11.06.31.27.57.62.83.93.32.38.64.75.96,1.13v-1.02l.08-.07.36-.1c.12.02.24.06.34.14l.19.32v.12c0-.38-.31-.74-.71-.72s-.73.32-.72.72c.02.74.94,1.16,1.47.61.29-.29.25-.72,0-1.02-.32-.38-.64-.75-.96-1.13-.28-.33-.55-.7-.88-.97-.43-.35-.97-.54-1.52-.37-.48.15-.85.49-1.2.83-1.41,1.39-2.79,2.8-4.14,4.25-.39.42-.83.83-1.02,1.38-.2.61.02,1.25.55,1.6.31.21.81.07.98-.26.19-.36.08-.76-.26-.98l.02.02ZM125.94,75.2c.84.9,1.64,1.84,2.38,2.83s1.46,1.92,1.9,3.01c.37.91.51,1.9.13,2.82s-1.45,1.37-2.37,1.75c-1.32.55-2.68.81-4.11.68-.39-.04-.72.36-.72.72,0,.42.33.68.72.72,1.45.14,2.91-.11,4.27-.64,1.22-.48,2.59-1.02,3.29-2.2,1.42-2.38,0-5.02-1.43-6.99-.94-1.3-1.95-2.54-3.05-3.72-.63-.68-1.65.34-1.02,1.02h0Z"/>
  <path class="st0" d="M121.18,82.12c.63-.75,1.34-1.43,2.12-2.03l-.15.11c.63-.49,1.3-.92,2-1.29.33-.18.46-.67.26-.98-.2-.34-.64-.45-.98-.26-1.63.86-3.08,2.03-4.27,3.44-.13.15-.21.31-.21.51,0,.18.08.39.21.51s.32.22.51.21c.18,0,.39-.07.51-.21h0ZM27.23,107.28c-.13-.14-.25-.29-.37-.44-.03-.03-.06-.06-.08-.1-.08-.1.08.11,0,0-.06-.08-.12-.15-.17-.23-.23-.31-.44-.63-.63-.97s-.37-.66-.53-1c-.04-.08-.08-.16-.11-.24-.02-.05-.04-.09-.06-.14,0-.02-.02-.04-.03-.06-.04-.09,0,.02.02.05-.07-.17-.14-.34-.2-.52-.15-.41-.28-.83-.39-1.25-.09-.36-.52-.62-.88-.5s-.6.49-.5.88c.4,1.56,1.09,3.07,2.02,4.38.28.4.59.79.91,1.16.25.28.77.27,1.02,0,.28-.3.27-.71,0-1.02,0,0-.02,0-.02,0Z"/>
  <path class="st0" d="M53.94,85.79c.09.11.18.22.26.33l-.11-.15c.45.58.85,1.2,1.21,1.85.09.16.26.28.43.33.1.03.19.03.29.01.1,0,.18-.03.27-.09.15-.1.29-.25.33-.43s.02-.38-.07-.55c-.33-.6-.7-1.18-1.12-1.73-.15-.2-.31-.4-.47-.6-.06-.07-.14-.12-.23-.15-.08-.05-.18-.07-.28-.06-.18,0-.39.08-.51.21s-.22.32-.21.51l.03.19c.03.12.1.23.19.32h-.01Z"/>
  <path class="st0" d="M46.87,106.83c.1,0,.19.02.27.07l-.15,1.18c1.8-.9,3.89-1.18,5.86-.79.4.08.81-.11.92-.52.1-.37-.12-.84-.52-.92-2.39-.48-4.84-.15-7.02.94-.44.22-.47.85-.15,1.18s.76.44,1.19.32c.93-.27.53-1.71-.4-1.45h0ZM63.01,105.71c1.39-1.03,2.97-1.52,4.66-1.45.41.02.75-.36.75-.75,0-.42-.34-.73-.75-.75-1.92-.07-3.87.51-5.41,1.66-.32.24-.49.65-.27,1.03.19.32.7.51,1.03.27h0ZM64.57,117.8c-.77-.35-1.55-.68-2.33-.99s-1.56-.7-2.38-.43c-1.39.46-2.36,2.05-2.55,3.43-.06.4.1.81.52.92.35.1.87-.12.92-.52.08-.54.25-1.03.55-1.48.23-.35.62-.83,1.05-.93.22-.05.47.06.68.14.31.11.62.24.92.36.63.25,1.25.52,1.87.79.37.17.81.11,1.03-.27.19-.32.1-.86-.27-1.03h0ZM90.56,103.72c.11.31.06.54-.14.67.07-.04.08-.04,0,0q.06-.01,0,0h.06c.22.04.46.03.68.06.88.12,1.75.33,2.58.64.18.07.36.14.54.22.1.05.21.1.31.15.06.03.12.06.17.09.1.06.11.06.03.01l-.19-.33v.06c.07-.24.14-.49.2-.73l-.03.03.53-.22h-.04c.13.03.25.06.38.1l-.03-.02.34.85v-.03c.16-.38-.15-.82-.51-.92-.42-.12-.77.14-.92.52v.03c-.14.33.09.66.33.85.58.44,1.35-.2,1.2-.85-.11-.47-.54-.64-.93-.83-.72-.33-1.47-.61-2.24-.81s-1.53-.32-2.31-.36c-.83-.04-1.87.67-1.32,1.59.21.35.67.47,1.03.27s.48-.68.27-1.03h.01ZM103.51,105.09c1.35-1.31,3.33-1.94,5.14-1.62.4.07.81-.11.92-.52.1-.36-.12-.85-.52-.92-2.38-.42-4.86.31-6.6,2.01-.69.68.37,1.74,1.06,1.06h0ZM99.38,119.55c.46-.99,1.13-2.53,2.39-2.57.48-.02.89.27,1.25.57.49.42.96.88,1.52,1.2.84.48,1.59-.81.76-1.3-.58-.34-1.06-.86-1.61-1.28-.6-.46-1.33-.77-2.11-.68-1.82.2-2.79,1.78-3.5,3.29-.17.37-.1.81.27,1.03.32.19.85.1,1.03-.27h0Z"/>
  <path class="st0" d="M86.84,116.18h-3.3l-4.46-4-3.6-7.6,1.21-5.28,2.39-2.04c0-8.22,1.07-15.53,5.51-19.97-.82-1.68.31-3.15,3.71-4.38,1.1-2.04,2.59-2.44,4.46-1.31,2.85-1.66,6.27-1.5,9.94-.52l7.96,1.72,9.7,8.35c3.45,5.36,6.03,10.8,4.62,16.62l11.91,7.23.74,3.46-5.45,1.08c1.02,5.09-3.36,7.84-10.65,9.33l-6.6-1.29,2.43-7.7c5.57-.54,7.62-12.11-2.46-10.26l-1.19-5.96-5.36,1.97-.08-1.3-1.71-.48-6.05,1.61-3.38.87-2.2-.2-1.2-.58-1.36-.97-1.88,2-3.68.45-1.91,1.19-1.37,2.01,1.33.31v3.48l1.97,12.16h0Z"/>
  <g>
    <path class="st0" d="M34.46,46.52c-.16-.33-.86-.34-1.79-.35-.18,0-.36-.01-.38-.08-.03-.09.11-.23.52-.45,2.27-.51,2.58-.4,2.66-.15.02.07.03.17.06.26l1.13,3.73c.21.57.61.45,2.52-.13,1.36-.41,3.19-1,4.05-1.32,1.13-.46.64-.83,1.99-1.24.89-.27,1.5-.37,1.62.03.07.24-.13.56-.57.73-2.31.82-6.59,2.17-8.4,2.74-1.38.42-2.14.07-2.31-.47l-1.07-3.29ZM41.02,51.47c-.14-.32-.66-.34-1.32-.3-.17.01-.35-.03-.37-.11-.03-.09.09-.23.45-.41,1.84-.42,2.17-.36,2.26-.09.04.15.02.33.08.53l1,3.63c1.14-.3,2.95-.95,3.84-1.3,1.01-.46.87-.72,1.56-.93.13-.04,2.11-.58,2.31.08.06.2-.14.46-.61.6l-.07.02c-1.36.31-3.01.75-4.72,1.27-2.46.74-5.08,1.63-7.31,2.48-.51.33-.56.59-.9.69-.29.09-.81.07-2-.13-.45-.04-.71-.18-.74-.27-.02-.07.02-.13.15-.16.07-.02.19-.04.33-.04,1.4-.24,2.76-.59,4.45-1.11.82-.25,1.72-.54,2.74-.87l-1.11-3.6Z"/>
    <path class="st0" d="M64.41,44.17c-.41.1-1.29.33-2.24.57-.38.14-.38.27-.57.3-.09.01-.62-.02-1.51-.31-1.92,1.27-3.91,2.33-5.21,2.62h-.04c-.32.05-.84-.31-.96-1.12l-.41-2.46c-.11-.31-.36-.45-1.19-.59-.16-.01-.26-.06-.27-.13-.01-.09.12-.23.47-.32.79-.12,1.73-.15,2.21-.01.49-.07,1.46-.28,2.59-.51.59-.15.51-.17,1.12-.36-.03-.42-.17-1.72-.35-2.91-1.17.24-2.51.56-3.81.85-.46.17-.55.33-.79.37-.36.05-1.8-.34-1.84-.6,0-.04.04-.08.18-.1.07-.01.17,0,.31,0,.69,0,1.45-.09,2.24-.21.9-.14,1.85-.34,2.87-.57.74-.17.36-.29,1.19-.41.53-.08,1.15-.12,1.19.09.03.17-.24.44-.34.69-.14.98-.22,2.07-.26,2.69.46-.03.7.08.73.23.04.26-.5.35-.77.39-.6.09-3.17.64-4.05.81-.13.15-.28.06-.22.46.14,1.04.28,1.94.32,2.37.06.24.13.33.37.29.39-.06,2.9-.87,6.02-2.9.14-.1.26-.16.34-.17.07-.01.12.02.12.06.04.26-1.09,1.05-1.27,1.14.61-.05,3.06-.49,3.75-.76l-.54-3.55c-1,.23-1.68.35-2.21.51-.38.15-.4.29-.6.32-.21.03-1.41-.19-1.45-.45,0-.06.06-.11.21-.13.3-.05.79-.08,1.1-.13.81-.12,1.91-.33,2.89-.59l-.34-2.22c-.07-.35-.59-.62-1.94-.97-.12-.04-.29-.11-.3-.19-.01-.09.12-.21.6-.32,2.33.05,2.71.26,2.76.6.02.15,0,.33.02.52l1.01,7.11c.14,1.52-.15,2.19-.43,2.24-.19.03-.38-.21-.44-.64l-.26-1.58ZM64.51,47.44c-1.16.23-4.14.81-6.48,1.24-.71.15-.78.45-1.17.51-.49.07-2.02-.42-2.06-.63,0-.06.06-.1.23-.13.07-.01.15-.02.27-.02.71,0,1.77-.12,2.92-.29,1.84-.28,3.95-.7,5.46-1.01.47-.07.4-.27.96-.36.08-.01.17-.03.28-.02.72-.07.91.02.93.15.02.15-.13.39-.1.63.4,2.61.55,3.7.44,4.91-.05.55-.27.91-.47.94-.17.03-.33-.16-.4-.63l-.81-5.28Z"/>
    <path class="st0" d="M77.89,40.04c1.56-.1.7-.51,2.75-.59.87.02,1.24.3,1.24.55,0,.04,0,.42-.76.42-1.18.08-4.73.17-7.03.27-.61.13-.76.36-1.12.36-.46,0-2.01-.7-2.01-.99,0-.06.08-.1.27-.1.08,0,.17,0,.29.02.95.11,1.92.15,2.91.15.49,0,2.93-.1,3.48-.1ZM75.8,42.4c.27-.06.61-.11.61-.44,0-.09-.04-.19-.15-.28-.08-.11-.13-.19-.13-.27s.08-.11.21-.11c.46,0,1.03.36,1.03.61,0,.17-.19.32-.27.49,2.22.32,3.27,1.65,3.27,3,0,1.52-1.35,3.02-3.82,3.02-2.53,0-3.82-1.59-3.82-3.06,0-1.33.99-2.64,3.08-2.97ZM75.74,38.16c-.57,0-1.96-1.02-1.96-1.23,0-.06.06-.09.19-.09.09,0,.21.02.38.06,1.41.26,2.49.26,3.93.26.46.02.74.23.74.46,0,.27-.36.51-1.22.53l-2.07.02ZM73.89,45.28c0,1.14.89,2.28,2.68,2.28,1.79,0,2.68-1.14,2.68-2.28,0-1.16-.9-2.32-2.68-2.32s-2.68,1.16-2.68,2.32ZM83.09,36.42c-.02-.32-1.05-.78-1.84-1.14-.21-.08-.34-.17-.34-.25,0-.11.23-.21.8-.23.82.13,1.58.32,2.19.51.4.15.49.28.49.47,0,.15-.06.32-.06.61v6.92s.96,0,.96,0c.89-.13.59-.49,1.8-.5.36,0,1.16,0,1.16.59,0,.27-.23.49-.65.49h-3.29s-.01,5.51-.01,5.51c-.02,1.23-.15,2.01-.47,2.81-.15.23-.3.34-.44.34-.17,0-.29-.25-.29-.87v-15.27Z"/>
    <path class="st0" d="M96.42,40.62c.01-.21-.37-.61-.96-1.16-.33-.24-.39-.48.34-.37.32.05,2.13,1.01,2.06,1.5-.04.28-1.88,2.75-2.02,2.92.27.52.58,1.03.83,1.39.54.89,1.2.74,1.21,2.64,0,.06,0,.12,0,.15-.05.36-.28.57-.5.54-.15-.02-.32-.16-.43-.45-.32-.8-.75-2.3-1.48-3.93-2.21,2.15-4.75,3.7-5.27,3.62-.04,0-.07-.03-.07-.07.01-.08.17-.21.44-.38,1.95-1.32,4.14-3.24,5.77-6.29l.08-.12ZM101.92,39.88c.07-.45-.61-.94-1.29-1.4-.21-.13-.42-.29-.4-.41.01-.09.18-.15.65-.09.67.16,1.38.52,1.88.75.39.21.46.42.43.6-.02.15-.1.29-.13.46l-1.57,10.14c-.41,2.46-.98,3.04-1.22,3-.21-.03-.25-.5-.11-1.42l1.05-6.95-1.76-.19c-.56.01-.68.19-.91.15-.28-.04-1.33-.7-1.3-.95,0-.06.13-.1.34-.06.13.02.76.15.92.18.98.15,1.91.23,2.79.33l.62-4.13ZM105.14,38.98c.03-.32-.59-.9-1.28-1.42-.26-.16-.4-.29-.38-.38.02-.11.21-.14.65-.09.88.31,1.57.7,2,.9.3.2.35.34.33.49-.02.13-.12.27-.15.48l-2.01,13.28c-.34,1.74-.82,2.6-1.19,2.66-.17-.03-.31-.24-.18-1.2l2.22-14.71Z"/>
    <path class="st0" d="M123.48,57.62c-1.2-.44-2.7-.93-4.26-1.39-3.04-.91-6.32-1.75-8.1-2.11-.44.03-.61.17-.92.08-.47-.14-2.13-1.57-2.06-1.79.02-.05.1-.07.26-.02.05.02.15.04.25.09,1.22.56,2.95,1.14,4.76,1.64.05-.38.3-1.34.39-1.97,0-.28-.22-.46-1.01-1.06-.17-.09-.28-.2-.25-.27.03-.09.21-.11.63-.05,1.84.69,2.04.95,1.96,1.22-.03.09-.1.19-.13.32-.05.18-.48,1.72-.57,2.09.61.2,2.63.75,3.89,1.05.18-.4.5-1.2.87-2.32.08-.41-.25-.69-.62-1.04-.13-.08-.22-.19-.21-.24.02-.07.19-.1.61-.04,1.52.75,1.82,1.02,1.75,1.24-.04.15-.22.27-.36.47-.25.52-.74,1.47-1.12,2.14.36.11,1.04.29,1.73.38.63.15.61-.19,1.5.07.49.15,1.99.64,1.79,1.33-.06.2-.27.31-.64.21l-.15-.04ZM118.91,43.08c.22.07.56-.03.65-.3.03-.09.02-.21-.03-.35-.12-.19-.18-.33-.16-.4.02-.07.11-.09.27-.04.62.19,1.04.71.97.93-.06.2-.38.28-.48.53,2.47,1.16,3.18,3.15,2.69,4.79-.54,1.82-2.64,3.18-5.37,2.36-2.73-.82-3.7-3.15-3.14-5.01.48-1.6,2.06-2.85,4.6-2.51ZM115.34,45.92c-.43,1.44.21,3.2,2.36,3.84,2.13.64,3.63-.48,4.06-1.92.43-1.44-.21-3.2-2.34-3.83-2.15-.64-3.65.47-4.08,1.91Z"/>
  </g>
  <path class="st0" d="M57.25,71.23c-8.24-2.43-15.78-2.4-22.48.53-7.01,4.02-11.57,9.44-13.12,16.6-1.12,9.49.96,17.02,3.91,20.02,1.31-4.21,2.55-7.08,5.48-6.45,3.14-.21,5.7,2.52,7.47,5.13,6.27-10.44,5.08-11.16,9.94-12.69,5.08-4.75,9.14-7.53,20.01-13.13-2.45-4.25-6.36-7.99-11.21-10.02h0ZM28.21,101.11c-.86-.7-1.66-1.68-2.27-3.48-2.34-7.98,3.04-14.23,5.98-17.15-1.95,6.23-4.58,9.04-3.71,20.63ZM38.29,99.33c-.47-3.63-.97-7.1.71-22.16,3.37,3.47,6.39,8.31,8.66,15.95-2.97,3.75-6.07,6.09-9.37,6.21ZM56.48,86.89c-7.13-10.24-9.08-11.67-11.12-13.25,10.87-.43,15.54,4.05,19.5,9.09-1.11.51-3.84,1.86-8.38,4.16Z"/>
</svg>