<svg xmlns="http://www.w3.org/2000/svg" id="_레이어_1" viewBox="0 0 160 160" width="160" height="160"><defs><style>.st0{fill:#3d4054}</style></defs><circle cx="79.48" cy="50.6" r="15.37" class="st0"/><path d="M107.01 124.78h-54.7V99.04c0-15.1 12.24-27.35 27.35-27.35 15.1 0 27.35 12.24 27.35 27.35v25.74z" class="st0"/><circle cx="40.64" cy="62.79" r="11.58" class="st0"/><path d="M49.73 99.04c0-5.67 1.58-10.97 4.33-15.5a20.524 20.524 0 0 0-13.29-4.86c-11.38 0-20.61 9.23-20.61 20.61v19.39h29.56V99.03z" class="st0"/><circle cx="119.09" cy="62.79" r="11.58" class="st0"/><path d="M119.23 78.68c-5.42 0-10.34 2.09-14.02 5.51 2.67 4.48 4.22 9.71 4.22 15.29v19.19h30.41V99.28c0-11.38-9.23-20.61-20.61-20.61z" class="st0"/></svg>