<svg width="32" height="32" viewBox="0 0 32 32" fill="none" xmlns="http://www.w3.org/2000/svg">
<path d="M12.7334 20.2L24.0334 8.9C24.3001 8.63333 24.6112 8.5 24.9667 8.5C25.3223 8.5 25.6334 8.63333 25.9001 8.9C26.1667 9.16667 26.3001 9.48356 26.3001 9.85067C26.3001 10.2178 26.1667 10.5342 25.9001 10.8L13.6667 23.0667C13.4001 23.3333 13.089 23.4667 12.7334 23.4667C12.3779 23.4667 12.0667 23.3333 11.8001 23.0667L6.06674 17.3333C5.80008 17.0667 5.67208 16.7502 5.68274 16.384C5.69341 16.0178 5.83252 15.7009 6.10008 15.4333C6.36763 15.1658 6.68452 15.0324 7.05074 15.0333C7.41697 15.0342 7.73341 15.1676 8.00008 15.4333L12.7334 20.2Z" fill="#00BF40"/>
</svg>
