<svg width="33" height="32" viewBox="0 0 33 32" fill="none" xmlns="http://www.w3.org/2000/svg">
<path d="M16.5001 17.8667L9.96673 24.4001C9.72229 24.6445 9.41118 24.7667 9.0334 24.7667C8.65562 24.7667 8.34451 24.6445 8.10006 24.4001C7.85562 24.1556 7.7334 23.8445 7.7334 23.4667C7.7334 23.089 7.85562 22.7778 8.10006 22.5334L14.6334 16.0001L8.10006 9.46673C7.85562 9.22229 7.7334 8.91118 7.7334 8.5334C7.7334 8.15562 7.85562 7.84451 8.10006 7.60006C8.34451 7.35562 8.65562 7.2334 9.0334 7.2334C9.41118 7.2334 9.72229 7.35562 9.96673 7.60006L16.5001 14.1334L23.0334 7.60006C23.2778 7.35562 23.589 7.2334 23.9667 7.2334C24.3445 7.2334 24.6556 7.35562 24.9001 7.60006C25.1445 7.84451 25.2667 8.15562 25.2667 8.5334C25.2667 8.91118 25.1445 9.22229 24.9001 9.46673L18.3667 16.0001L24.9001 22.5334C25.1445 22.7778 25.2667 23.089 25.2667 23.4667C25.2667 23.8445 25.1445 24.1556 24.9001 24.4001C24.6556 24.6445 24.3445 24.7667 23.9667 24.7667C23.589 24.7667 23.2778 24.6445 23.0334 24.4001L16.5001 17.8667Z" fill="#FF4242"/>
</svg>
