<svg xmlns="http://www.w3.org/2000/svg" id="_레이어_1" viewBox="0 0 160 160" width="160" height="160"><defs><style>.st0{fill:#3d4054}</style></defs><path d="M92.56 43.23c2.58 0 4.67 2.09 4.67 4.67v11.2c0 2.58-2.09 4.67-4.67 4.67s-4.67-2.09-4.67-4.67V47.9c0-2.58 2.09-4.67 4.67-4.67zm-26.2 0c2.58 0 4.67 2.09 4.67 4.67v11.2c0 2.58-2.09 4.67-4.67 4.67s-4.67-2.09-4.67-4.67V47.9c0-2.58 2.09-4.67 4.67-4.67z" class="st0"/><path d="M48.84 115.28l64.82-57.78-2.5-2.5v-1.5h-10.93v5.6c0 4.23-3.44 7.67-7.67 7.67s-7.67-3.44-7.67-7.67v-5.6H74.02v5.6c0 4.23-3.44 7.67-7.67 7.67s-7.67-3.44-7.67-7.67v-5.6h-9.85c-2.21 0-4 1.79-4 4v55.28c0 2.21 1.79 4 4 4h62.32c2.21 0 4-1.79 4-4V57.5c0-2.21-1.79-4-4-4z" class="st0"/></svg>