<svg width="16" height="17" viewBox="0 0 16 17" fill="none" xmlns="http://www.w3.org/2000/svg">
<path opacity="0.987" fill-rule="evenodd" clip-rule="evenodd" d="M7.209 1.56099C7.934 1.47999 8.363 1.47999 9.142 1.56099C10.5209 1.76509 11.7992 2.40248 12.792 3.38099C12.1211 4.01513 11.4591 4.65852 10.806 5.31099C9.55533 4.25099 8.15933 4.00633 6.618 4.57699C5.48733 5.09699 4.7 5.93966 4.256 7.10499C3.53044 6.56483 2.81433 6.01207 2.108 5.44699C2.05891 5.42116 2.00285 5.4117 1.948 5.41999C3.07 3.25666 4.82333 1.96999 7.208 1.55999" fill="#F44336"/>
<path opacity="0.997" fill-rule="evenodd" clip-rule="evenodd" d="M1.94601 5.42C2.00267 5.41133 2.05634 5.42033 2.10701 5.447C2.81334 6.01208 3.52945 6.56483 4.25501 7.105C4.14083 7.55906 4.06886 8.02269 4.04001 8.49C4.06467 8.942 4.13634 9.38566 4.25501 9.821L2.00001 11.616C1.01801 9.564 1.00001 7.49866 1.94601 5.42Z" fill="#FFC107"/>
<path opacity="0.999" fill-rule="evenodd" clip-rule="evenodd" d="M12.6849 13.79C11.9828 13.1708 11.2477 12.5899 10.4829 12.05C11.2496 11.5087 11.7149 10.766 11.8789 9.82199H8.12195V7.21299C10.2886 7.19499 12.4543 7.21332 14.6189 7.26799C15.0296 9.49799 14.5553 11.5087 13.1959 13.3C13.0343 13.4718 12.8631 13.6354 12.6849 13.79Z" fill="#448AFF"/>
<path opacity="0.993" fill-rule="evenodd" clip-rule="evenodd" d="M4.255 9.82202C5.075 11.86 6.57833 12.8114 8.765 12.676C9.37883 12.605 9.96735 12.3905 10.483 12.05C11.2483 12.5914 11.9823 13.1714 12.685 13.79C11.5716 14.7905 10.1521 15.3841 8.658 15.474C8.31854 15.5012 7.97746 15.5012 7.638 15.474C5.09267 15.174 3.21333 13.888 2 11.616L4.255 9.82202Z" fill="#43A047"/>
</svg>
