<svg xmlns="http://www.w3.org/2000/svg" id="_레이어_1" viewBox="0 0 160 160" width="160" height="160"><defs><style>.st0{stroke:#3d4054;stroke-miterlimit:10}.st0,.st1{fill:#3d4054}</style></defs><path d="M80.05 49.49c-8.19 0-14.85-6.66-14.85-14.85s6.66-14.85 14.85-14.85S94.9 26.45 94.9 34.64s-6.66 14.85-14.85 14.85z" class="st1"/><path d="M80.05 20.28c7.92 0 14.35 6.44 14.35 14.35s-6.44 14.35-14.35 14.35S65.7 42.54 65.7 34.63s6.44-14.35 14.35-14.35m0-1c-8.48 0-15.35 6.87-15.35 15.35s6.87 15.35 15.35 15.35S95.4 43.11 95.4 34.63s-6.87-15.35-15.35-15.35z" class="st1"/><path d="M78.71 91.07c-.67 1.77-1.84 3.35-3.39 4.5l4.05-2.94v-2.1l-.66.54zm44.28 19.1a5.014 5.014 0 0 0-5.82-4.04l-14.34 3.02a4.99 4.99 0 0 1-4.78-1.77l-9.47-10.82c-.7 1.65-1.83 3.12-3.32 4.19l-3.89 2.82 12.65 14.73a5.01 5.01 0 0 0 4.78 1.77l20.16-4.07c2.72-.49 4.53-3.1 4.04-5.83h-.01z" class="st0"/><path d="M118.01 79.61l-4.9-15.26a5.023 5.023 0 0 0-3.84-3.69l-22.79-5.22c-.8-.16-1.61-.24-2.42-.24l-5.99-.02c-2.12 0-4.22.51-6.09 1.52l-15.66 8.43a5 5 0 0 1-2.64.47l-17.04-2.32c-2.76-.26-5.01 1.79-5.01 4.56 0 2.77 2.25 5.25 5.01 5.51l18.87 2.49a5 5 0 0 0 2.64-.47l16.9-7.82-.68 19.98c0 1.61-.77 3.11-2.07 4.06l-19.53 14.96c-1.3.94-2.07 2.45-2.07 4.06l.34 25.12c0 2.77 2.24 5.01 5.01 5.01 2.77 0 5.01-2.24 5.01-5.01l-.34-20.01c0-1.61.77-3.11 2.07-4.06L82.32 96.7c1.3-.94 2.07-2.45 2.07-4.06l.68-26.86 15.96 3.62c1.93.36 3.47 1.81 3.95 3.71l3.39 9.22a5.005 5.005 0 0 0 6.57 3.49c2.47-.89 3.72-3.66 3.08-6.2h-.01z" class="st0"/></svg>