<?xml version="1.0" encoding="UTF-8"?>
<svg id="_레이어_1" xmlns="http://www.w3.org/2000/svg" version="1.1" viewBox="0 0 160 160">
  <!-- Generator: Adobe Illustrator 29.8.2, SVG Export Plug-In . SVG Version: 2.1.1 Build 3)  -->
  <defs>
    <style>
      .st0 {
        stroke: #3d4054;
        stroke-miterlimit: 10;
      }

      .st0, .st1 {
        fill: #3d4054;
      }
    </style>
  </defs>
  <path class="st1" d="M94.54,31.56l-.03-.16c-.45-2.55-2.88-4.26-5.43-3.81l-9.42,1.65,14.88,2.33h0ZM58.13,105.23c-.78-.12-1.52-.38-2.19-.75.58,2.38,2.9,3.95,5.35,3.52l6.85-1.2-10-1.56h0Z"/>
  <path class="st0" d="M41.45,114.97l4.26-8.75-.77-12.97-16.52-8.58,34.47-26.99,26.6,25.96,2.64,8.01,8.25-7.05,23.39-8.01,2.56,13.3-18.12,5.23,1.76,4.87-1.65,3.92,5.11,8.65-5.68,1.85,3.11,7.69h-60.79l-8.62-7.12h0Z"/>
  <g>
    <path class="st1" d="M47.5,56.48l1.28.45-.51-3.57,3.43,1.19-.52-3.57,3.44,1.19-.52-3.57,5.69,1.98.09.11,2.71-17.36c.06-.4.16-.79.29-1.17l-14.43,2.53c-2.55.45-4.26,2.88-3.81,5.43l2.86,16.36Z"/>
    <path class="st1" d="M99.36,23.54h-41.25c-2.59,0-4.69,2.1-4.69,4.69v3.57l10.81-1.89c1.26-1.41,3.07-2.22,4.96-2.22h.01c.35-.01.7.02,1.04.07l3.3.52,15.2-2.66c.38-.07.77-.1,1.16-.1,3.25,0,6.02,2.33,6.58,5.54l.15.83,7.42,1.16v-4.82c0-2.59-2.1-4.69-4.69-4.69Z"/>
    <polygon class="st1" points="51.19 77.56 53.56 91.11 55.95 75.83 51.19 77.56"/>
  </g>
  <path class="st1" d="M76.04,67.53l15.31,14.95,1.81,5.48,6.14-5.25,9.35-3.2,5.95-38.05c.4-2.56-1.35-4.96-3.91-5.36l-40.76-6.37c-2.56-.4-4.96,1.35-5.36,3.91l-2.95,18.85,14.41,15.04h0Z"/>
  <polygon class="st0" points="130.55 86.2 133.08 83.58 129.62 82.55 132.14 79.93 128.68 78.91 131.2 76.29 127.74 75.26 125.84 76.01 128.48 89.68 132.69 88.6 134.01 87.22 130.55 86.2"/>
  <polygon class="st0" points="25.14 81.49 26.72 83.29 61.5 56.06 58.52 52.4 56.72 51.77 57.23 55.34 53.8 54.15 54.32 57.72 50.88 56.53 51.4 60.1 47.97 58.9 48.48 62.47 45.05 61.28 45.56 64.85 42.13 63.66 42.65 67.23 39.21 66.03 39.73 69.61 36.3 68.41 36.81 71.98 33.38 70.79 33.9 74.36 30.46 73.17 30.98 76.74 27.55 75.54 28.06 79.11 24.63 77.92 25.14 81.49"/>
  <g>
    <polygon class="st0" points="51.01 131.26 51.01 131.26 51.01 131.26 51.01 131.26"/>
    <path class="st0" d="M50,124.23v5.41l1.01,1.62,1.85-3.09,1.91,3.09,1.85-3.09,1.91,3.09,1.86-3.09,1.9,3.09,1.86-3.09,1.91,3.09,1.85-3.09,1.91,3.09,1.86-3.09,1.9,3.09,1.86-3.09,1.91,3.09,1.85-3.09,1.91,3.09,1.86-3.09,1.9,3.09,1.86-3.09,1.91,3.09,1.85-3.09,1.91,3.09,1.86-3.09,1.9,3.09,1.86-3.09,1.91,3.09,1.85-3.09,1.91,3.09,1.85-3.09,1.91,3.09,1.86-3.09,1.9,2.33v-6.27h-61.21Z"/>
  </g>
</svg>