<svg xmlns="http://www.w3.org/2000/svg" id="_레이어_1" viewBox="0 0 160 160" width="160" height="160"><defs><style>.st0,.st1,.st2{stroke:#3d4054;stroke-miterlimit:10}.st0,.st2{fill:none}.st1,.st3{fill:#3d4054}.st4{fill:#fff}.st1,.st2{stroke-width:1.5px}</style></defs><path d="M81.13 53.84c-4.45-23.9-24.73-23.9-29.19 0m9.29 2.79H36.99m-5.63 0h-6.93c-1.5 0-2.73 1.03-2.79 2.33l-2.76 59.2c-.06 1.38 1.2 2.53 2.79 2.53l53.79 3.4c.3 0 .6-.04.88-.12l18.62-5.4c1.22-.35 2.01-1.39 1.9-2.51l-5.52-57.19c-.12-1.26-1.33-2.23-2.78-2.23H66.87" class="st2"/><path d="M75.91 124.08V56.63h12.65c1.45 0 2.66.97 2.78 2.23l5.52 57.19c.11 1.12-.68 2.15-1.9 2.51l-19.05 5.53z" class="st3"/><path d="M80.97 118.51l2.39-5.04-.37-46.15 2.38 45.51 8.96.83-9.66.98-3.7 3.87z" class="st4"/><path d="M33.64 64.53c0-37.31 30.94-37.31 30.94 0" class="st2"/><circle cx="33.64" cy="64.53" r="1.39" class="st1"/><circle cx="64.58" cy="64.53" r="1.39" class="st1"/><path d="M133.61 87.26l-27.51-4.49c-.13-.02-.26-.03-.39-.04l-9.28-.2 2.75 28.48 5.81.13c.18 0 .36 0 .53-.04l28.12-4.79a2.79 2.79 0 0 0 2.32-2.75V90c0-1.37-.99-2.53-2.34-2.75z" class="st1"/><path d="M128.97 105.88c23.79-2.43 23.53-6.56-.38-5.94m-1.53-6.45c22.52 8.06 24.06 4.22 2.22-5.53" class="st0"/></svg>