<svg xmlns="http://www.w3.org/2000/svg" id="_레이어_1" viewBox="0 0 160 160" width="160" height="160"><defs><style>.st0,.st1,.st2{fill:#3d4054}.st0,.st2{stroke:#3d4054;stroke-miterlimit:10}.st2{stroke-width:.5px}</style></defs><path d="M119.76 113.79c0-19.78-14.94-36.07-34.15-38.22v8.15c0 2.38-1.94 4.32-4.32 4.32s-4.32-1.94-4.32-4.32v-8.15c-19.21 2.15-34.15 18.44-34.15 38.22 0 0-1.09 8.78 38.47 8.78s38.47-8.78 38.47-8.78z" class="st0"/><path d="M81.29 85.35c-.89 0-1.62-.73-1.62-1.62V39.05c0-.89.73-1.62 1.62-1.62s1.62.73 1.62 1.62v44.68c0 .89-.73 1.62-1.62 1.62zm4.32-45.86v22.44c0 .37.37.63.72.51l32.12-11.22c.48-.17.48-.85 0-1.02L86.33 38.98a.544.544 0 0 0-.72.51zm-45.79 74.25c0-7.42 1.97-14.41 5.42-20.47l-9.94.28v20.24h4.52v-.05z" class="st0"/><path d="M43.47 96.75c.75-1.67 1.61-3.28 2.57-4.83l-.82-35.74h3.98V50H35.31v6.18h4.04l-1.07 40.57h5.2z" class="st0"/><path d="M47.76 52.36l15.11.56 1.12.04v1.65H44.42" class="st0"/><path d="M62.87 51.75h3.16v4.18h-3.16zm1.58 2.1v16.98m-4.95 0h9.25v1.61H59.5zm54.06 16.89l-1.74-25.25h-2.94v20.34c1.69 1.51 3.26 3.15 4.69 4.91z" class="st0"/><path d="M106.56 61.39h7.78v3.87h-7.78z" class="st0"/><path d="M107.81 62.47l-14.31.79-1.11.06v.88l15.42.29v-2.02z" class="st0"/><path d="M90.84 62.34h2.66v2.92h-2.66z" class="st1"/><path d="M92.17 63.8v13.23" class="st2"/><path d="M120.07 99.07c1.33 3.52 2.2 7.26 2.53 11.15h2.1V99.07h-4.63z" class="st0"/></svg>