<svg width="32" height="32" viewBox="0 0 32 32" fill="none" xmlns="http://www.w3.org/2000/svg">
<path d="M3.80946 27.4287C3.37771 27.4287 3.01606 27.2458 2.72451 26.8801C2.43295 26.5144 2.28667 26.0623 2.28565 25.5239C2.28463 24.9855 2.43092 24.5334 2.72451 24.1677C3.01809 23.802 3.37974 23.6191 3.80946 23.6191H28.1904C28.6221 23.6191 28.9843 23.802 29.2769 24.1677C29.5694 24.5334 29.7152 24.9855 29.7142 25.5239C29.7132 26.0623 29.5669 26.515 29.2754 26.882C28.9838 27.249 28.6221 27.4312 28.1904 27.4287H3.80946ZM3.80946 17.9049C3.37771 17.9049 3.01606 17.722 2.72451 17.3563C2.43295 16.9906 2.28667 16.5385 2.28565 16.0001C2.28463 15.4617 2.43092 15.0096 2.72451 14.6439C3.01809 14.2782 3.37974 14.0953 3.80946 14.0953H28.1904C28.6221 14.0953 28.9843 14.2782 29.2769 14.6439C29.5694 15.0096 29.7152 15.4617 29.7142 16.0001C29.7132 16.5385 29.5669 16.9912 29.2754 17.3582C28.9838 17.7252 28.6221 17.9074 28.1904 17.9049H3.80946ZM3.80946 8.38105C3.37771 8.38105 3.01606 8.1982 2.72451 7.83248C2.43295 7.46677 2.28667 7.01471 2.28565 6.47629C2.28463 5.93788 2.43092 5.48582 2.72451 5.1201C3.01809 4.75439 3.37974 4.57153 3.80946 4.57153H28.1904C28.6221 4.57153 28.9843 4.75439 29.2769 5.1201C29.5694 5.48582 29.7152 5.93788 29.7142 6.47629C29.7132 7.01471 29.5669 7.4674 29.2754 7.83439C28.9838 8.20137 28.6221 8.38359 28.1904 8.38105H3.80946Z" fill="white"/>
</svg>
