<svg xmlns="http://www.w3.org/2000/svg" id="_레이어_1" viewBox="0 0 160 160" width="160" height="160"><defs><style>.st0{fill:#3d4054;stroke:#3d4054;stroke-miterlimit:10}</style></defs><path d="M132.37 121.6c0-26.94-20.33-49.11-46.49-52.04v11.1c0 3.24-2.64 5.88-5.88 5.88s-5.88-2.64-5.88-5.88v-11.1c-26.16 2.92-46.49 25.1-46.49 52.04 0 0-1.49 11.96 52.37 11.96s52.37-11.96 52.37-11.96z" class="st0"/><path d="M80 82.88a2.21 2.21 0 0 1-2.21-2.21V19.84c0-1.21.98-2.21 2.21-2.21s2.21.98 2.21 2.21v60.82c0 1.21-.98 2.21-2.21 2.21zm50.59-47.85L86.87 19.75a.737.737 0 0 0-.98.7v30.54c0 .5.5.87.98.7l43.72-15.28c.66-.23.66-1.16 0-1.38zm-27.11-.41c-.35.58-.86 1.19-1.56 1.88-.66.63-.82.9-.84.93 0 0-.02.08-.04.27-.07.6-.35 1.14-.75 1.54.08.06.15.13.23.21.59.59.9 1.34.9 2.18 0 .82-.31 1.57-.9 2.16-.58.59-1.33.91-2.17.91h-.01c-.82 0-1.57-.31-2.16-.9-.59-.59-.9-1.34-.9-2.17 0-.84.31-1.59.9-2.18.1-.1.21-.19.32-.28a.138.138 0 0 1-.03-.04c-.49-.55-.73-1.28-.66-2.02.06-.61.17-1.1.34-1.5.28-.68.8-1.36 1.59-2.07.48-.42.84-.78 1.06-1.05.07-.08.09-.14.09-.24 0-.18-.05-.22-.09-.27-.09-.09-.35-.1-.45-.1-.07 0-.31 0-.38.08-.08.09-.15.18-.21.28-.5.74-1.32 1.18-2.18 1.18-.34 0-.68-.07-.99-.2-.78-.33-1.31-.94-1.53-1.68-.22-.74-.09-1.54.35-2.17.33-.48.74-.92 1.21-1.32 1.01-.85 2.26-1.27 3.73-1.27 1.79 0 3.22.54 4.25 1.61 1.02 1.05 1.53 2.33 1.53 3.8 0 .93-.21 1.75-.64 2.45z" class="st0"/><path d="M98.35 38.47c-.64 0-1.13-.57-1.06-1.21.05-.46.12-.81.23-1.08.19-.46.59-.97 1.21-1.52.54-.47.95-.88 1.23-1.23s.42-.74.42-1.19c0-.54-.18-.98-.54-1.33s-.86-.53-1.5-.53c-.67 0-1.17.2-1.52.61-.12.14-.22.27-.31.41-.3.44-.85.65-1.34.44l-.07-.03c-.62-.27-.85-1.04-.47-1.6.25-.37.57-.71.94-1.02.73-.62 1.66-.92 2.77-.92 1.37 0 2.43.38 3.17 1.15.74.77 1.11 1.69 1.11 2.76 0 .65-.14 1.21-.42 1.68-.28.46-.72.99-1.33 1.58-.64.62-1.03 1.08-1.17 1.4-.07.17-.13.4-.16.7-.06.54-.52.94-1.06.94h-.13zm-.01 4.71c-.43 0-.8-.15-1.11-.46-.31-.31-.46-.68-.46-1.11s.15-.8.46-1.11c.31-.31.68-.46 1.11-.46s.8.15 1.11.46c.31.31.46.68.46 1.11s-.16.8-.46 1.11c-.31.31-.68.46-1.11.46" class="st0"/></svg>