<svg width="14" height="14" viewBox="0 0 14 14" fill="none" xmlns="http://www.w3.org/2000/svg">
<path d="M11.3748 7.33365L6.99977 11.6666L2.62477 7.33365C2.3362 7.05284 2.10889 6.71532 1.95717 6.34235C1.80545 5.96938 1.7326 5.56904 1.7432 5.16653C1.7538 4.76402 1.84763 4.36806 2.01878 4.00359C2.18992 3.63913 2.43468 3.31405 2.73764 3.04882C3.04059 2.78359 3.39518 2.58397 3.77908 2.46251C4.16297 2.34106 4.56786 2.30041 4.96823 2.34312C5.36861 2.38583 5.75581 2.51097 6.10545 2.71068C6.45508 2.91038 6.75958 3.18031 6.99977 3.50348C7.241 3.18266 7.54585 2.91508 7.89524 2.7175C8.24464 2.51992 8.63106 2.39658 9.03031 2.3552C9.42957 2.31383 9.83307 2.3553 10.2156 2.47704C10.598 2.59878 10.9513 2.79816 11.2532 3.06269C11.5551 3.32723 11.7991 3.65123 11.97 4.01442C12.1409 4.37761 12.235 4.77216 12.2464 5.17339C12.2579 5.57463 12.1863 5.97389 12.0363 6.34621C11.8864 6.71853 11.6611 7.05588 11.3748 7.33715" fill="#9B9D9F"/>
<path d="M3.60367 1.90618C4.0643 1.76047 4.55028 1.71195 5.03067 1.76319C5.51102 1.81446 5.97553 1.96453 6.39501 2.20411C6.61322 2.32875 6.8166 2.47653 7.00227 2.64389C7.18781 2.47847 7.39088 2.33282 7.60839 2.20981C8.02762 1.97273 8.4914 1.82482 8.97045 1.77516C9.44955 1.72551 9.93391 1.77491 10.3929 1.92099C10.8519 2.06708 11.2759 2.30651 11.6382 2.62395C12.0004 2.94138 12.2933 3.33035 12.4984 3.76612C12.7034 4.20188 12.8162 4.67528 12.8299 5.15667C12.8436 5.63814 12.7575 6.11752 12.5775 6.5643C12.3976 7.01095 12.1275 7.41574 11.784 7.75318L11.751 7.78224L7.41072 12.0809C7.18338 12.3061 6.81718 12.3061 6.58984 12.0809L2.21483 7.74806V7.74749C1.87039 7.41127 1.59869 7.00791 1.41731 6.56202C1.23525 6.11446 1.14767 5.63397 1.16039 5.15097C1.17313 4.668 1.28601 4.19262 1.49136 3.7553C1.69673 3.31806 1.99037 2.92791 2.35383 2.60971C2.71736 2.29148 3.14303 2.05191 3.60367 1.90618ZM4.90649 2.92302C4.58627 2.8889 4.26218 2.92159 3.95515 3.01873C3.64817 3.11589 3.36458 3.27547 3.12231 3.48756C2.87994 3.69974 2.68387 3.9599 2.54695 4.25147C2.41007 4.543 2.33498 4.85979 2.32649 5.18173C2.31801 5.50367 2.37663 5.82392 2.49796 6.12224C2.60419 6.38338 2.75681 6.6229 2.94799 6.82919L3.03173 6.91578L3.03572 6.9192L6.99999 10.8453L10.9648 6.9192C10.973 6.91111 10.9814 6.90335 10.9899 6.89584C11.2074 6.67579 11.38 6.41517 11.4958 6.12794C11.6157 5.83015 11.6729 5.51061 11.6638 5.18971C11.6547 4.86886 11.5794 4.55331 11.4428 4.26287C11.3061 3.97232 11.1106 3.71286 10.8691 3.50123C10.6277 3.28966 10.3451 3.13036 10.0391 3.03297C9.73315 2.93558 9.41005 2.90246 9.09065 2.93556C8.77132 2.96868 8.46206 3.06691 8.18261 3.22494C7.90316 3.38298 7.6595 3.59727 7.46654 3.85385C7.35601 4.00086 7.18221 4.08735 6.99828 4.08684C6.81445 4.08625 6.6414 3.99912 6.53173 3.85157C6.33961 3.59308 6.09645 3.37672 5.8168 3.21697C5.5371 3.05721 5.22679 2.95719 4.90649 2.92302Z" fill="#9B9D9F"/>
</svg>
