<svg width="28" height="28" viewBox="0 0 28 28" fill="none" xmlns="http://www.w3.org/2000/svg">
<path d="M13.9998 8.16678C16.4752 8.16678 18.8492 9.1501 20.5995 10.9004C22.3498 12.6508 23.3332 15.0248 23.3332 17.5001C23.3332 19.9755 22.3498 22.3494 20.5995 24.0998C18.8492 25.8501 16.4752 26.8334 13.9998 26.8334C11.5245 26.8334 9.15051 25.8501 7.40017 24.0998C5.64983 22.3494 4.6665 19.9755 4.6665 17.5001C4.6665 15.0248 5.64983 12.6508 7.40017 10.9004C9.15051 9.1501 11.5245 8.16678 13.9998 8.16678ZM13.9998 12.2501L12.4575 15.3768L9.0065 15.8784L11.5032 18.3109L10.914 21.7479L13.9998 20.1251L17.0857 21.7468L16.4965 18.3109L18.9932 15.8773L15.5422 15.3756L13.9998 12.2501ZM15.1665 2.33228L20.9998 2.33344V5.83344L19.4097 7.16111C18.0904 6.46824 16.6495 6.03721 15.1665 5.89178V2.33228ZM12.8332 2.33228V5.89061C11.3505 6.03619 9.91008 6.46722 8.59117 7.15994L6.99984 5.83344V2.33344L12.8332 2.33228Z" fill="#F5F5F5"/>
</svg>
