<svg width="28" height="28" viewBox="0 0 28 28" fill="none" xmlns="http://www.w3.org/2000/svg">
<path d="M14 5C11.1004 5 9.75 7.31369 9.75 10.168C9.75 12.4755 12.1812 14.6812 13.4958 16.2079C13.7621 16.5171 14.2383 16.5171 14.5042 16.2079C15.8188 14.6812 18.25 12.4755 18.25 10.168C18.25 7.31369 16.8996 5 14 5ZM2.83833 12.8573C2.59092 12.9548 2.37883 13.1229 2.22941 13.3401C2.07999 13.5573 2.00008 13.8136 2 14.0759L2 24.3429C2 24.8072 2.47625 25.1247 2.91417 24.9524L8.66667 22.375V12.8151C8.29833 12.1596 7.99708 11.5214 7.78125 10.9111L2.83833 12.8573ZM14 18.7521C13.4137 18.7521 12.8592 18.4986 12.4788 18.0565C11.6596 17.1049 11.7883 17.0213 11 15.9097V23.3746L17 23.9996V15.9102C16.2117 17.0213 16.3408 17.1053 15.5213 18.0569C15.1408 18.4986 14.5863 18.7521 14 18.7521ZM25.0858 10.6101L19.3333 13.1875V25L25.1617 22.7052C25.4091 22.6078 25.6212 22.4396 25.7707 22.2224C25.9201 22.0052 26 21.7489 26 21.4866V11.2196C26 10.7553 25.5238 10.4378 25.0858 10.6101Z" fill="#F5F5F5"/>
</svg>
