<?xml version="1.0" encoding="UTF-8"?>
<svg id="_레이어_1" xmlns="http://www.w3.org/2000/svg" version="1.1" viewBox="0 0 160 160">
  <!-- Generator: Adobe Illustrator 29.8.2, SVG Export Plug-In . SVG Version: 2.1.1 Build 3)  -->
  <defs>
    <style>
      .st0 {
        fill: #3d4054;
      }
    </style>
  </defs>
  <path class="st0" d="M57.59,68.27c-8.24-2.43-15.78-2.4-22.48.53-7.01,4.02-11.57,9.44-13.12,16.6-1.12,9.49.96,17.02,3.91,20.02,1.31-4.21,2.55-7.08,5.48-6.45,3.14-.21,5.7,2.52,7.47,5.13,6.27-10.44,5.08-11.16,9.94-12.69,5.08-4.75,9.14-7.53,20.01-13.13-2.45-4.25-6.36-7.99-11.21-10.02h0ZM28.55,98.15c-.86-.7-1.66-1.68-2.27-3.48-2.34-7.98,3.04-14.23,5.98-17.15-1.95,6.23-4.58,9.04-3.71,20.63ZM38.63,96.37c-.47-3.63-.97-7.1.71-22.16,3.37,3.47,6.39,8.31,8.66,15.95-2.97,3.75-6.07,6.09-9.37,6.21ZM56.82,83.93c-7.13-10.24-9.08-11.67-11.12-13.25,10.87-.43,15.54,4.05,19.5,9.09-1.11.51-3.84,1.86-8.38,4.16Z"/>
  <path class="st0" d="M37.58,113.26c1.75,3.17,4.05,5.98,7.1,7.97,3.44,2.24,7.49,3.33,11.51,3.91,1.07.15,2.11.38,3.17.14.97-.21,2.04-.34,2.88-.91,1.61-1.1,3.06-2.63,4.3-4.12,2.62-3.14,4.28-6.86,4.37-10.98.12-5.75-1.22-11.4-2.16-17.03-.15-.91-1.54-.52-1.39.38.78,4.71,1.84,9.4,2.07,14.18.1,2.02.08,4.04-.44,6-.49,1.81-1.33,3.49-2.39,5.02s-2.43,2.99-3.86,4.27c-.7.62-1.36,1.27-2.3,1.48s-1.85.45-2.84.32c-3.92-.51-7.85-1.37-11.3-3.36-3.27-1.88-5.67-4.72-7.47-8-.45-.81-1.69-.09-1.24.73h0Z"/>
  <path class="st0" d="M38.73,112.66c-.25-.46-.56-.93-1.04-1.17-.59-.29-1.22-.18-1.77.13-.45.25-.82.6-1.32.75-.46.13-.95.16-1.42.07-2.14-.37-3.64-2.43-4.71-4.15s-1.82-3.8-1.09-5.81c.28-.78.82-1.49,1.55-1.9.92-.52,2.08-.51,3.09-.32,1.11.21,2.16.64,3.09,1.28.46.31.88.68,1.27,1.09.17.18.34.37.49.56.14.18.41.48.45.69v-.38l-.03.08.5-.5-.04.02h.38l-.04-.02.32.19-.03-.04.19.32v-.04c-.12.27-.23.54-.34.81l.03-.02c.32-.22.47-.63.26-.98-.18-.31-.67-.48-.98-.26l-.03.02c-.28.2-.4.47-.33.81.08.39.49.66.87.61.45-.07.75-.49.68-.94v-.05c-.13-.57-.66-1.14-1.03-1.58-.8-.92-1.77-1.67-2.86-2.22-2.22-1.11-5.24-1.57-7.29.12-1.88,1.55-2.23,4.3-1.56,6.51.39,1.29,1.07,2.47,1.85,3.57.78,1.1,1.59,2.09,2.65,2.88,1.17.88,2.64,1.33,4.1,1.08.75-.13,1.32-.51,1.94-.91.16-.1.37-.25.54-.18.19.09.34.43.45.61.45.81,1.69.09,1.24-.73h-.03Z"/>
  <path class="st0" d="M35,109.49c-.06-.55-.2-1.04-.44-1.54-.21-.44-.49-.84-.82-1.19-.65-.71-1.49-1.22-2.42-1.48-.52-.14-1.08-.2-1.62-.14-.2.02-.36.07-.51.21-.12.12-.22.33-.21.51s.07.38.21.51c.13.12.32.23.51.21.31-.03.62-.03.93.01l-.19-.03c.36.05.71.15,1.04.29l-.17-.07c.36.15.69.35,1,.59l-.15-.11c.3.23.56.5.8.79l-.11-.15c.22.29.41.6.55.94l-.07-.17c.13.31.22.63.26.96l-.03-.19v.06c.02.2.06.36.21.51.12.12.33.22.51.21s.38-.07.51-.21c.12-.13.23-.32.21-.51h0ZM68.8,78.29c-3.15-3.89-6.51-7.97-11.21-10.02-4.75-2.07-10.52-2-15.56-1.28-1.16.17-2.31.38-3.45.65s-2.44.54-3.47,1.16c-1.99,1.19-3.92,2.59-5.72,4.06s-3.57,3.23-4.87,5.24c-1.43,2.21-2.2,4.71-2.53,7.3-.39,3.14-.33,6.43-.02,9.58.3,2.97.99,5.87,2.52,8.46.47.8,1.72.07,1.24-.73-2.64-4.44-2.75-10.11-2.49-15.14.13-2.62.59-5.24,1.83-7.58,1.04-1.96,2.51-3.64,4.16-5.12s3.64-2.88,5.57-4.16c.87-.58,1.69-1,2.7-1.3,1.14-.34,2.3-.59,3.47-.8,4.74-.85,10.16-1.04,14.78.49,5.15,1.7,8.74,6.14,12.03,10.21.58.72,1.59-.3,1.02-1.02Z"/>
  <path class="st0" d="M64.44,78.91c.16.16.31.34.45.52l-.11-.15c.2.26.38.53.53.82.08.15.26.29.43.33.18.04.4.04.55-.07.53-.4,1.06-.8,1.58-1.2.08-.05.15-.11.2-.19.06-.07.11-.15.13-.24.05-.17.03-.4-.07-.55s-.25-.29-.43-.33-.4-.04-.55.07c-.53.4-1.06.8-1.58,1.2l.98.26c-.29-.54-.67-1.04-1.09-1.48-.13-.13-.33-.21-.51-.21s-.39.08-.51.21-.22.32-.21.51.07.37.21.51h0ZM44.03,71.23c5.2,3.57,8.61,9.05,11.86,14.32l.26-.98c-2.63,1.56-5.13,3.3-7.51,5.22-.3.25-.25.76,0,1.02.3.3.72.24,1.02,0,2.28-1.84,4.7-3.51,7.22-5,.33-.19.46-.65.26-.98-3.4-5.49-6.96-11.12-12.38-14.83-.77-.52-1.49.72-.73,1.24h0Z"/>
  <path class="st0" d="M56.42,85.93c3.02-1.9,6.23-3.48,9.57-4.69.37-.13.61-.49.5-.88-.1-.35-.52-.64-.88-.5-3.47,1.25-6.8,2.87-9.92,4.83-.33.21-.46.64-.26.98s.65.47.98.26h0Z"/>
  <path class="st0" d="M65.97,81.13l2.67-1.35c.16-.08.29-.27.33-.43.05-.17.03-.4-.07-.55s-.25-.29-.43-.33c-.19-.04-.38-.02-.55.07l-2.67,1.35c-.16.08-.29.27-.33.43-.05.17-.03.4.07.55s.25.29.43.33c.2.04.37.02.55-.07Z"/>
  <path class="st0" d="M67.74,79.98c.14.06.28.11.42.17l.21.09s.07.03.11.04c.12.05-.08-.03.04.02.3.13.6.26.9.4.57.27,1.14.55,1.7.85,1.12.61,2.21,1.29,3.25,2.04.62.45,1.07.79,1.66,1.28.29.24.74.3,1.02,0,.24-.27.31-.76,0-1.02-2.06-1.73-4.33-3.19-6.76-4.34-.71-.33-1.43-.64-2.16-.93-.35-.14-.8.15-.88.5-.09.41.13.74.5.88v.02h0Z"/>
  <path class="st0" d="M76.57,84.38c-5.84,2.43-12.03,4.5-18.37,5.02-2.69.22-5.43.28-8.05,1s-4.65,2.13-6.42,4.13c-2.26,2.54-4.22,5.34-5.89,8.29-.46.81.79,1.53,1.24.73,1.45-2.56,3.11-4.99,5.01-7.24,1.8-2.13,3.7-3.77,6.44-4.52,2.6-.71,5.31-.74,7.97-.97,2.94-.25,5.82-.84,8.66-1.63,3.33-.93,6.59-2.08,9.78-3.41.84-.35.47-1.74-.38-1.39h.01Z"/>
  <path class="st0" d="M49.61,90.61s.04-.04.06-.05l-.15.11c.06-.04.12-.08.19-.11l-.17.07c.07-.03.14-.04.21-.05l-.19.03h.03c-.12-.45-.24-.9-.36-1.34-1.05.73-2.02,1.57-2.88,2.51-.24.26-.46.53-.68.8-.12.15-.21.3-.21.51,0,.18.08.39.21.51s.32.22.51.21c.18,0,.39-.06.51-.21.63-.79,1.33-1.52,2.1-2.18.22-.19.44-.37.67-.54l-.15.11c.21-.17.43-.33.66-.48.13-.09.23-.19.29-.34s.09-.32.04-.47c-.04-.12-.1-.23-.19-.32-.11-.12-.34-.23-.51-.21-.24.03-.4.07-.61.16-.14.06-.27.16-.38.27-.13.12-.21.33-.21.51s.08.39.21.51c.3.28.72.27,1.02,0h-.02,0Z"/>
  <path class="st0" d="M38.82,73.62c3.32,3.7,5.96,7.94,7.81,12.55.52,1.31.98,2.64,1.37,3.99.26.89,1.65.51,1.39-.38-1.44-4.93-3.73-9.62-6.78-13.75-.87-1.18-1.79-2.32-2.77-3.41-.62-.69-1.63.33-1.02,1.02v-.02Z"/>
  <path class="st0" d="M46,92.22c-1.85,2.15-5.3,3.99-8.13,4.22l.72.72c-.44-6.45-.35-12.93.27-19.37.19-1.96.31-4.04,1.32-5.78.47-.8-.77-1.53-1.24-.73-1.02,1.75-1.25,3.77-1.45,5.75-.22,2.21-.39,4.43-.49,6.65-.2,4.49-.15,8.98.15,13.46.02.36.31.75.72.72,3.2-.25,7.04-2.2,9.15-4.64.6-.7-.41-1.72-1.02-1.02v.02ZM32.71,76.85c-3.82,6.82-5.22,14.82-3.99,22.53l.69-.91c-.74.02-1.39-.78-1.82-1.3-.5-.61-.9-1.33-1.17-2.07-.62-1.65-.72-3.44-.49-5.18.45-3.39,1.93-6.68,3.88-9.45,1.07-1.53,2.34-2.9,3.74-4.13.7-.61-.32-1.62-1.02-1.02-2.81,2.46-5.03,5.53-6.48,8.97-1.52,3.61-2.43,7.88-.85,11.62.68,1.61,2.21,4.04,4.21,4,.51-.01.77-.45.69-.91-1.17-7.32.22-14.96,3.84-21.42.45-.81-.79-1.53-1.24-.73h.01ZM48.55,105.36c-.13.17,0,0,.03-.04.04-.05.08-.09.13-.14.08-.08.15-.15.24-.22.02-.02.05-.04.07-.06.06-.05.05-.04-.04.03,0-.03.12-.09.15-.11.09-.06.18-.12.28-.18l.33-.18s.16-.09.17-.08c-.1.04-.11.05-.04.02l.04-.02c.23-.09.46-.16.7-.22.12-.03.24-.06.37-.08.08-.01.15-.03.23-.04.04,0,.08-.01.11-.02-.09.01-.1.01-.05,0,.29-.03.57-.05.86-.06.59-.02,1.18,0,1.76.02.38.01.74-.34.72-.72-.02-.4-.32-.7-.72-.72-1.84-.07-3.83-.09-5.43.98-.45.3-.83.66-1.16,1.1-.11.14-.12.4-.07.55.05.17.17.35.33.43.17.09.37.13.55.07s.31-.17.43-.33v.02h0ZM56.83,102.39c.08.73.46,1.28,1.02,1.72.27.21.56.41.84.61.06.04.11.08.17.12.1.08,0-.01-.02-.02.03.02.05.04.08.06.13.11.26.23.37.36.03.03.16.21.07.08.05.06.09.13.13.19.09.15.18.31.25.47-.07-.16.03.1.04.13.02.07.05.15.07.23l.06.26s.02.14,0-.02c0,.05.01.1.01.15.01.17.01.33,0,.5,0,.03,0,.1-.01.11,0,0,.03-.17,0-.02l-.06.28c-.02.07-.04.15-.07.22-.02.05-.1.25-.03.09-.07.15-.15.31-.24.45-.05.08-.1.16-.16.23.1-.13-.06.06-.09.09-.12.13-.25.25-.39.37.11-.09.04-.03,0,0-.05.03-.09.06-.14.1-.08.05-.17.1-.25.14.02-.01.13-.05,0,0-.12.04.02,0,.08.01.25.07.41.39.25.63.21-.31.07-.81-.26-.98-.34-.19-.78-.08-.98.26-.39.58.04,1.35.67,1.5.53.12,1.04-.17,1.45-.48.71-.54,1.24-1.27,1.5-2.13s.21-1.75-.1-2.55c-.18-.45-.41-.85-.72-1.23-.26-.32-.59-.57-.92-.81-.16-.11-.31-.22-.47-.33-.03-.02-.06-.04-.08-.06-.02-.01-.18-.13-.09-.07s-.04-.03-.05-.04c-.04-.03-.08-.06-.11-.1-.07-.06-.14-.13-.21-.2l-.06-.07c.06.08.07.1.03.03l-.03-.04s-.05-.08-.07-.12l-.02-.04c-.03-.07-.03-.06.02.04-.02.01-.08-.42-.05-.13-.04-.37-.3-.74-.72-.72-.35.02-.76.32-.72.72h.01ZM62.19,101.6c-.06-.32-.4-.55-.71-.55-.25,0-.47.12-.62.31-.18.24-.23.59-.06.85.15.24.4.38.69.39.22,0,.42-.09.63-.17l.51-.21c.68-.28,1.36-.58,2.09-.68l-.19.03c.27-.04.55-.04.82,0l-.19-.03c.1.01.2.03.29.07l-.17-.07s.07.03.1.06l-.15-.11s.04.03.06.05l-.11-.15s.03.04.04.06l-.07-.17v.02c0-.06-.01-.13-.02-.19v.05l.03-.19v.03c.23-.18.46-.35.69-.53h-.06l.19.03s-.04,0-.06-.02l.17.07s-.05-.03-.08-.05l.15.11s-.04-.04-.06-.07l.11.15s-.02-.03-.03-.05l.07.17s-.01-.04-.02-.06c-.09-.37-.52-.62-.88-.5s-.6.49-.5.88c.11.45.54.77,1.01.77.16,0,.31-.06.44-.15.11-.09.23-.23.26-.37.03-.2.04-.37-.04-.57-.05-.13-.12-.24-.22-.33-.18-.16-.4-.27-.63-.31-.43-.07-.87-.07-1.3,0-.68.09-1.32.36-1.95.62-.18.07-.35.15-.53.22s-.35.17-.53.19l.19-.03h-.03c.06,0,.13.02.19.03h-.02c.06.02.11.04.17.07h-.02s.1.06.15.1l-.02-.02.19.32v-.02.38-.02c-.02.06-.05.11-.07.17v-.02s-.07.1-.1.15h.01s-.1.06-.15.1h.02c-.06.01-.11.04-.17.06h.02c-.06,0-.13.01-.19.02h.01l-.51-.21c-.06-.1-.12-.2-.19-.31v.02c.03.17.19.35.33.43.15.09.38.13.55.07s.34-.16.43-.33c.09-.18.11-.35.07-.55h-.03ZM45.69,100.55c-.3-.05-.54-.01-.78.17-.21.16-.37.45-.33.72s.12.48.36.62c.23.13.5.12.73,0,.85-.46,1.73-.89,2.61-1.29.14-.06.29-.13.44-.19-.13.05.05-.02.08-.03.08-.03.17-.07.25-.1.59-.24,1.18-.46,1.78-.67.3-.1.59-.21.89-.29l.26-.06c.16-.03-.08,0,.07,0,.03,0,.3.02.13-.01.08.01.17.04.25.07.35.13.8-.15.88-.5.09-.41-.12-.74-.5-.88-.71-.27-1.48,0-2.16.23-.64.22-1.28.45-1.91.71-1.3.52-2.56,1.11-3.79,1.78l1.08.62c-.05.24-.17.41-.37.49h-.38.04c.37.07.79-.09.88-.5.08-.35-.11-.81-.5-.88h-.01ZM62.32,98.01l.4-.06c.06,0,.11-.02.17-.02h-.08.11c.24-.03.47-.05.71-.07.49-.04.97-.06,1.46-.07s.96.01,1.43.05c.25.02.5.04.74.07.11.01.23.01.34.04-.17-.04,0,0,.04,0l.23.03.19-1.41c-.06,0-.13-.02-.19-.02-.17-.02-.39.09-.51.21s-.22.33-.21.51.07.38.21.51c.15.14.31.19.51.21.06,0,.13.02.19.02.16.02.4-.09.51-.21s.18-.25.2-.41c.04-.32-.16-.73-.52-.79-2.11-.32-4.22-.31-6.32.04-.37.06-.61.54-.5.88.13.4.49.57.88.5h.01ZM51.51,114.27c2.04.19,4.09,0,6.09-.37.99-.18,1.97-.41,2.94-.66.5-.13.99-.26,1.48-.4.06-.02.34-.1.34-.1.05.01.1.17.12.28.16.73-.29,1.47-.71,2.03-.52.68-1.18,1.3-1.86,1.82-1.31.99-3.13,1.69-4.73.97-.85-.38-1.54-1.06-2.12-1.77s-1.06-1.56-1.37-2.44c-.13-.37-.49-.61-.88-.5-.35.1-.63.52-.5.88.67,1.89,1.91,3.7,3.63,4.78,1.88,1.19,4.23.88,6.07-.25.89-.54,1.68-1.25,2.39-2.01s1.36-1.65,1.52-2.68-.19-2.53-1.48-2.54c-.56,0-1.15.25-1.69.39s-1.11.29-1.66.42c-2.48.58-5.01.94-7.56.7-.39-.04-.72.36-.72.72,0,.42.33.68.72.72h-.02,0ZM49.62,92.27c2.13-.13,4.12.68,6.09,1.37s4.05,1.27,6.18.93c1.14-.18,2.22-.59,3.25-1.08.51-.24,1.01-.51,1.5-.8.19-.11.44-.33.66-.37.26-.05.42.17.64.31,1.58.98,3.59.4,4.98-.64,1.91-1.43,2.95-3.75,3.23-6.07.11-.92-1.33-.91-1.44,0-.22,1.84-1.13,3.83-2.67,4.94-.68.49-1.53.88-2.38.84s-1.36-.83-2.18-.86c-.94-.03-1.87.79-2.67,1.2-.95.48-1.94.88-2.99,1.08-2.01.39-3.97-.24-5.85-.91-2.06-.73-4.15-1.53-6.38-1.39-.92.06-.93,1.5,0,1.44h.03,0ZM90.12,102.48l-.33-.2.15,1.13.24-.21s.18-.12.02-.02c.05-.03.09-.07.14-.1.18-.13.36-.24.55-.35.09-.05.18-.1.28-.15.05-.02.1-.05.15-.07.02-.01.04-.02.07-.03.02,0,.12-.05.02-.01s.06-.02.09-.04c.04-.02.09-.03.14-.05.11-.04.21-.07.32-.11.21-.06.42-.11.63-.16.1-.02.21-.03.31-.05-.02,0-.18.02-.05,0h.07c.06,0,.11-.01.17-.02.44-.04.86,0,1.3.03-.21-.02,0,0,.05,0,.06.01.13.02.19.04.12.02.23.05.35.08.24.06.48.15.71.24.16.07.41.01.55-.07s.29-.26.33-.43c.1-.42-.13-.73-.5-.88-1.84-.76-4-.57-5.75.34-.5.26-.97.6-1.38.98-.35.32-.24.9.15,1.13l.33.2c.32.19.8.08.98-.26s.09-.78-.26-.98l-.02.02h0ZM103.27,102.23c.32.21.76.18,1.07-.05.21-.15.34-.34.52-.52.03-.03.07-.06.1-.09.06-.05-.05.04-.05.04.02,0,.04-.03.06-.04.08-.06.17-.1.26-.15.11-.05-.14.05.02,0,.04-.02.09-.03.13-.04.1-.03.2-.05.3-.07.05,0,.1,0,.14-.02,0,0-.15.02-.07,0h.07c.11-.01.21-.02.32-.02h.64c.54.02,1.08.05,1.63.07l1.95.09c.38.02.74-.34.72-.72-.02-.4-.32-.7-.72-.72-.72-.03-1.43-.06-2.15-.1-.62-.03-1.25-.08-1.87-.07s-1.21.09-1.76.34c-.27.12-.51.28-.72.48-.09.09-.17.19-.25.28-.04.04-.2.16-.04.05-.07.04-.05.03.06-.02.13-.03.25-.02.37.03-.32-.21-.81-.07-.98.26-.19.36-.08.76.26.98h0ZM96.31,103.66c.05.44.06.88.04,1.32,0,.22-.03.45-.06.67v.08s.02-.15,0-.06c0,.05-.02.1-.02.15l-.06.33c-.09.45-.25.92-.21,1.39.04.43.17.84.44,1.19s.58.64.98.83c.44.21.92.32,1.41.33.84.02,1.71-.19,2.46-.56.35-.18.7-.42.96-.71.14-.16.27-.33.36-.53.13-.27.19-.51.23-.81.02-.17-.1-.39-.21-.51-.12-.12-.33-.22-.51-.21s-.38.07-.51.21c-.14.15-.18.31-.21.51.03-.26,0,0-.03.06-.01.03-.03.07-.03.1.04-.18.05-.11.02-.04l-.09.15-.06.09c.11-.19.05-.06,0,0-.04.04-.08.09-.13.13-.03.02-.05.05-.08.07-.05.04-.14.08.03-.02-.13.08-.25.17-.38.24-.06.03-.11.06-.17.08-.03.02-.07.03-.1.05.2-.1.08-.03.03-.01-.14.05-.29.1-.43.14-.17.04-.34.08-.5.11-.03,0-.12.04-.15.02h.09-.1c-.1.01-.2.02-.29.02h-.44c-.08-.01-.06-.01.05,0-.02.04-.47-.13-.54-.14.19.05.09.04.03,0-.04-.02-.07-.04-.1-.06-.06-.03-.11-.07-.17-.1-.07-.05-.09-.11.02.02-.02-.03-.06-.05-.09-.08-.06-.05-.11-.11-.16-.17-.1-.11.1.14.02.02-.02-.03-.04-.06-.06-.1-.03-.05-.06-.11-.09-.17-.07-.13.05.17.01.03l-.03-.11-.03-.11c-.03-.13.01.19,0,.01,0-.03-.02-.26,0-.27v.09-.1c0-.05.02-.1.03-.15.04-.2.09-.39.13-.59.18-.93.24-1.88.14-2.82-.02-.2-.07-.36-.21-.51-.14-.13-.32-.21-.51-.21-.36.02-.76.32-.72.72h0ZM89.16,98.1h-.03c.11.05.21.11.32.17l-.02-.02.19.32c.13.31-.06.51-.26.63-.06.02-.07.03-.02.01.04,0,.08-.01.13-.02.06,0,.13-.02.19-.03.21-.03-.15.02.06,0,.28-.03.55-.07.83-.09.55-.05,1.11-.08,1.66-.1,1.11-.02,2.22.03,3.33.16.38.04.74-.36.72-.72-.02-.43-.32-.67-.72-.72-1.32-.15-2.64-.2-3.97-.14-.66.03-1.32.09-1.98.18-.4.05-.81.06-1.12.36-.17.17-.27.4-.28.64,0,.2.08.39.22.53.11.11.22.15.36.21.16.07.41.01.55-.07.15-.09.29-.26.33-.43.04-.18.03-.39-.07-.55s-.25-.25-.43-.33h0ZM102.61,97.46c.36-.25.64-.25.83,0,.21.16.24.4.1.71l-.43.33c1.06-.45,2.17-.77,3.31-.97.11-.02.22-.04.32-.05l.2-.03c.05,0,.2-.05,0,0,.22-.06.48-.06.7-.08s.47-.03.7-.04c.38-.02.74-.32.72-.72-.02-.38-.32-.74-.72-.72-1.88.08-3.75.46-5.49,1.17-.1.04-.23.08-.31.13-.14.09-.24.21-.31.37-.1.24-.08.51.05.74.11.19.32.36.54.41.3.07.56-.02.79-.21.29-.24.27-.77,0-1.02-.31-.28-.71-.26-1.02,0l.02-.02ZM96.27,113.74c.98-.26,1.98-.45,2.99-.53s2.02,0,3.01-.26c.89-.23,1.72-.66,2.62-.86.32-.07.69-.11,1.07-.06-.05,0-.04,0,.06.01.05.01.11.02.16.04.08.02.16.04.23.07s.3.17.37.24c.29.26.73.28,1.02,0,.26-.26.29-.76,0-1.02-.74-.67-1.71-.88-2.68-.77s-1.89.55-2.84.85-1.99.23-3.01.31c-1.14.09-2.27.28-3.38.58-.89.24-.51,1.63.38,1.39h0Z"/>
  <path class="st0" d="M106.41,111.83c-.12.47-.24.94-.47,1.37s-.56.73-.93,1.02c-.76.59-1.64,1.13-2.57,1.41-.45.14-.7.18-1.14.19-.19,0-.38,0-.57-.02-.03,0-.28-.03-.19-.02l-.34-.06c-.81-.17-1.44-.46-2.11-.97-.07-.05-.3-.26-.43-.39-.14-.14-.33-.35-.43-.47s-.25-.35-.35-.53c-.12-.21-.21-.4-.27-.55-.14-.36-.48-.61-.88-.5-.35.1-.64.52-.5.88.72,1.88,2.33,3.29,4.26,3.83.96.27,1.98.31,2.95.09,1.14-.25,2.21-.86,3.15-1.54.55-.4,1.06-.83,1.44-1.4s.6-1.28.77-1.96c.22-.9-1.16-1.28-1.39-.38Z"/>
  <path class="st0" d="M83.03,100.13c.5,2.18,1,4.35,1.51,6.53.44,1.93.82,3.89,1.59,5.72,1.44,3.4,4.41,5.54,7.61,7.16,3.29,1.67,6.71,2.95,10.46,2.5,3.39-.41,6.64-1.97,8.93-4.52,2.57-2.87,3.93-6.71,3.7-10.56l-.91.69c1.64.56,3.44-.09,4.55-1.37,1.26-1.45,1.58-3.53,1.43-5.39s-.99-3.31-2.72-4.05c-2-.86-4.16-.35-6.17.19-.89.24-.51,1.63.38,1.39,2.62-.7,6.75-1.32,7.07,2.47.12,1.37-.01,2.88-.78,4.05s-2.08,1.76-3.38,1.32c-.43-.14-.94.24-.91.69.39,6.56-4.16,12.42-10.65,13.56-3.47.61-6.65-.44-9.73-1.95-2.94-1.44-5.91-3.25-7.37-6.31-.89-1.87-1.25-3.97-1.71-5.98l-1.51-6.53c-.21-.9-1.6-.52-1.39.38h0Z"/>
  <path class="st0" d="M84.34,97.62c-.73-.78,0-1.94.76-2.36.99-.54,2.14-.47,3.23-.56.91-.07,1.85-.26,2.5-.95.37-.4.39-.8,1.04-.63.52.13,1,.44,1.5.62,4.93,1.85,9.58-1.84,14.37-2.33l-.69-.53c.15.6.07,1.14-.24,1.68-.29.51.2,1.29.81,1.06.78-.29,1.56-.59,2.34-.88.64-.24,1.56-.79,2.26-.77.44.01.4.35.43.71l.09,1.34c.06.89.13,1.78.19,2.68s1.5.93,1.44,0c-.08-1.19-.17-2.38-.25-3.57-.06-.88-.06-1.91-.94-2.39-.8-.44-1.72-.09-2.5.2-1.15.43-2.3.87-3.44,1.3l.81,1.06c.5-.87.62-1.81.39-2.79-.07-.28-.39-.56-.69-.53-2.29.24-4.39,1.06-6.55,1.8s-4.4,1.36-6.61.84c-.95-.22-1.78-.82-2.75-.96-.42-.06-.84-.03-1.21.18-.4.23-.52.58-.81.9-.59.67-1.75.54-2.55.59-.92.06-1.85.2-2.69.6-1.73.83-2.69,3.18-1.25,4.72.63.68,1.65-.34,1.02-1.02h0ZM85.92,112.58c-1.7.31-3.4-.51-4.67-1.59s-2.46-2.51-3.44-3.94c-1.75-2.57-2.89-5.7-1.82-8.76.51-1.44,1.49-2.66,2.88-3.31.84-.4.11-1.64-.73-1.24-3.05,1.44-4.38,5.11-3.94,8.31.26,1.92,1.06,3.72,2.1,5.34s2.33,3.24,3.8,4.52c1.72,1.5,3.88,2.48,6.19,2.06.91-.16.52-1.55-.38-1.39,0,0,.01,0,.01,0Z"/>
  <path class="st0" d="M79.95,93.96c-1.1-5.34-.23-11.04,2.33-15.85.73-1.36,1.59-2.66,2.57-3.85.59-.71-.43-1.73-1.02-1.02-3.73,4.5-5.8,10.27-5.8,16.12,0,1.67.18,3.34.52,4.98.19.91,1.57.52,1.39-.38h.01Z"/>
  <path class="st0" d="M87.77,69.97c-1.03-.19-2.08-.03-3,.49s-1.56,1.35-1.91,2.31c-.18.5-.27,1.06-.24,1.6.02.38.32.74.72.72.37-.02.74-.32.72-.72,0-.21,0-.42.03-.63l-.03.19c.04-.32.13-.63.25-.93l-.07.17c.13-.3.29-.58.49-.83l-.11.15c.18-.23.38-.43.61-.61l-.15.11c.24-.18.5-.34.78-.46l-.17.07c.3-.13.62-.21.94-.26l-.19.03c.32-.04.65-.04.97,0l-.19-.03c.06,0,.11.02.17.03.19.04.38.03.55-.07.15-.09.29-.26.33-.43.08-.35-.11-.81-.5-.88v-.02Z"/>
  <path class="st0" d="M127.12,96.2c-1.4-1.28-1.16-3.51-1.39-5.23-.26-1.9-.78-3.75-1.5-5.52-1.46-3.56-3.67-6.75-6.18-9.65-2.45-2.83-5.23-5.75-8.72-7.27-1.88-.82-3.71-.94-5.73-.98-2.14-.04-4.09-1.04-6.22-1.04-1.08,0-2.17.2-3.17.6-.53.21-1.1.65-1.65.76s-1.08-.24-1.6-.36c-1.88-.43-3.11,1.22-3.88,2.68-.43.82.81,1.55,1.24.73.35-.68.77-1.5,1.47-1.88.78-.42,1.55.24,2.35.3.9.06,1.6-.47,2.39-.81.9-.38,1.87-.58,2.85-.57,2,0,3.85.95,5.85,1.03s3.9.09,5.8.99c3.27,1.55,5.89,4.38,8.21,7.09s4.57,6,5.89,9.51c.71,1.9,1.15,3.86,1.32,5.88.14,1.73.3,3.55,1.66,4.79.68.62,1.7-.39,1.02-1.02v-.03h-.01Z"/>
  <path class="st0" d="M115.12,115.9c1.41-.71,3.17.26,4.59.54,1.81.36,3.62-.01,5.36-.56,2.91-.91,5.9-2.47,7.15-5.42.68-1.59.75-3.32.05-4.92l-.62,1.08c2.06-.21,4.11-.51,6.15-.9.54-.1.69-.85.32-1.2-.67-.64-1.33-1.28-2-1.92l-.51,1.23c1.22-.03,3.03-.92,2.09-2.4-.41-.64-1.26-1.11-1.9-1.47-.74-.41-1.52-.74-2.31-1.03-2.82-1.06-6.38-1.81-7.8-4.81-.4-.84-1.64-.11-1.24.73,1.16,2.45,3.72,3.72,6.16,4.59,1.36.49,2.76.9,4.05,1.55.61.31,1.12.75,1.7,1.09.21.13.16.1-.04.19-.22.1-.48.12-.71.12-.61.01-.97.79-.51,1.23.67.64,1.33,1.28,2,1.92l.32-1.2c-1.91.37-3.83.66-5.76.85-.58.06-.85.56-.62,1.08.69,1.57.19,3.41-.76,4.76-1.05,1.49-2.77,2.44-4.44,3.08-1.89.71-4,1.35-6.02.89-1.82-.41-3.61-1.24-5.42-.34-.83.42-.1,1.66.73,1.24h-.01ZM116.65,72.83c.05.03.07.06.1.11-.04-.05-.02-.09,0,.02,0-.02-.03-.11-.01-.02s0-.02,0-.05c-.01-.1.02.12,0,.02h-.01s.04-.08.07-.11c0-.01.11-.15.07-.1-.05.06.05-.05.06-.07.02-.03.05-.05.07-.08.07-.08.15-.16.22-.24.15-.16.3-.32.45-.49.58-.62,1.16-1.23,1.75-1.83s1.2-1.22,1.81-1.83c.15-.15.3-.29.44-.44.06-.05.11-.11.17-.16.03-.02.05-.05.08-.07.15-.13-.1.05.07-.05.03-.02.06-.03.09-.05.07-.06-.09.02,0,0,.03,0,.06-.02.09-.03-.1.04-.06,0,0,0,.17,0,0,0,0,0,0,0,.15.08,0,0,.04.02.21.15.11.06.31.27.57.62.83.93.32.38.64.75.96,1.13v-1.02l.08-.07.36-.1c.12.02.24.06.34.14l.19.32v.12c0-.38-.31-.74-.71-.72s-.73.32-.72.72c.02.74.94,1.16,1.47.61.29-.29.25-.72,0-1.02-.32-.38-.64-.75-.96-1.13-.28-.33-.55-.7-.88-.97-.43-.35-.97-.54-1.52-.37-.48.15-.85.49-1.2.83-1.41,1.39-2.79,2.8-4.14,4.25-.39.42-.83.83-1.02,1.38-.2.61.02,1.25.55,1.6.31.21.81.07.98-.26.19-.36.08-.76-.26-.98l.02.02h0ZM125.61,72.32c.84.9,1.64,1.84,2.38,2.83s1.46,1.92,1.9,3.01c.37.91.51,1.9.13,2.82s-1.45,1.37-2.37,1.75c-1.32.55-2.68.81-4.11.68-.39-.04-.72.36-.72.72,0,.42.33.68.72.72,1.45.14,2.91-.11,4.27-.64,1.22-.48,2.59-1.02,3.29-2.2,1.42-2.38,0-5.02-1.43-6.99-.94-1.3-1.95-2.54-3.05-3.72-.63-.68-1.65.34-1.02,1.02h0Z"/>
  <path class="st0" d="M120.85,79.24c.63-.75,1.34-1.43,2.12-2.03l-.15.11c.63-.49,1.3-.92,2-1.29.33-.18.46-.67.26-.98-.2-.34-.64-.45-.98-.26-1.63.86-3.08,2.03-4.27,3.44-.13.15-.21.31-.21.51,0,.18.08.39.21.51s.32.22.51.21c.18,0,.39-.07.51-.21h0ZM26.9,104.4c-.13-.14-.25-.29-.37-.44-.03-.03-.06-.06-.08-.1-.08-.1.08.11,0,0-.06-.08-.12-.15-.17-.23-.23-.31-.44-.63-.63-.97s-.37-.66-.53-1c-.04-.08-.08-.16-.11-.24-.02-.05-.04-.09-.06-.14,0-.02-.02-.04-.03-.06-.04-.09,0,.02.02.05-.07-.17-.14-.34-.2-.52-.15-.41-.28-.83-.39-1.25-.09-.36-.52-.62-.88-.5s-.6.49-.5.88c.4,1.56,1.09,3.07,2.02,4.38.28.4.59.79.91,1.16.25.28.77.27,1.02,0,.28-.3.27-.71,0-1.02,0,0-.02,0-.02,0Z"/>
  <polygon class="st0" points="52.18 91.49 75.48 86.03 73.28 91.01 69.7 92.56 67.23 91.49 62.53 93.66 58.33 93.81 52.18 91.49"/>
  <g>
    <path class="st0" d="M26.99,49.46c-.32.17-.25.34-.5.44-.34.13-2.1.06-2.18-.16-.01-.04.03-.09.15-.14.12-.05.31-.1.58-.14.46-.12,1.1-.32,1.88-.62.94-.36,2.11-.88,3.47-1.57.26-.12.16-.21.77-.44.48-.19.9-.35,1.01-.08.04.11-.01.29-.22.53-.34,1.39-.82,2.47-1.09,3.09,1.57.58,1.95-.16,3.55.75.3.19.45.38.51.52.1.27-.04.47-.24.54-.51.2-3.42-1.14-4.06-1.34-2.07,3.49-4.41,5.72-4.74,5.85-.07.03-.13.03-.14,0-.02-.05.07-.23.28-.48,1.95-2.16,4.22-5.68,4.55-8.46-1.2.53-2.38,1.1-3.55,1.72ZM29.93,45.57c-.23.13-1.5.74-2.66,1.19-.53.16-1.85-.3-1.91-.46-.02-.05.03-.09.13-.13.07-.03.17-.04.3-.07.67-.1,2.27-.65,3.79-1.16.33-.11.52-.04.57.1.06.14-.04.38-.22.53ZM37.68,52.19c.67-.22.9-.21.95-.08.05.14-.11.45-.08.74.25,1.27.53,3.01.62,3.71.57-.12.86-.03.93.13.05.14-.1.32-.42.45-1.17.49-4.72,1.97-5.87,2.41.16.73.06,1.22-.15,1.3-.14.06-.35-.11-.59-.57-.28-.56-1.27-2.87-1.9-4.13-.13-.23-.2-.37-1.29-.29-.22.02-.44.03-.47-.06-.03-.09.09-.24.49-.47.72-.24,1.6-.44,2.08-.52.83-.34,3.83-1.58,4.68-2.01.41-.16.11-.25.76-.5l.27-.1ZM33.68,43.41c-.07-.18-.65-.36-1.89-.37-.3.01-.48-.04-.52-.13-.04-.11.14-.28.56-.46.86-.25,1.5-.23,2.02-.29.59,0,.76.07.83.25.05.12.03.29.11.51l1.83,4.79c.24-.11.43-.16.68-.3.88-.46.29-.68,1.58-1.18.35-.14,1.04-.4,1.23.07.08.21-.03.5-.32.63l-3.01,1.22c1,2.69.48,3.24.32,3.3-.14.05-.34-.09-.54-.61l-2.88-7.44ZM37.59,57.48c.5-.28.58-.35,1.01-.66-.26-.84-.95-2.89-1.29-3.76-.95.45-3.69,1.57-5.02,2.14-.04.16-.18.17-.11.35l1.46,3.51,3.95-1.59Z"/>
    <path class="st0" d="M46.47,50.35c-1.48-4.82-2.27-5.64-2.74-7.39-.34-1.25-.22-1.99.38-2.15.59-.16,1.08.42,1.41,1.67.47,1.74.2,2.86,1.34,7.76l-.4.11ZM48.44,53.28c.12.46-.06,1.02-.65,1.18-.57.15-1.01-.24-1.13-.7-.12-.44.06-1,.63-1.15.59-.16,1.03.23,1.15.67Z"/>
    <path class="st0" d="M57.48,38.51c.35-.11.22-.19.77-.27.92-.14,1.18-.1,1.2.07.03.17-.24.46-.36.67-.47.99-1.2,2.27-1.53,2.74.31.3.89.54,1.16.67.77.42.78-.19,2.13.99.31.28.47.56.5.77.04.24-.09.4-.3.43-.17.03-.41-.02-.64-.19-.45-.32-1.83-1.34-3.21-2.18-2.21,2.83-4.98,4.64-5.43,4.71-.08.01-.09.01-.1-.02-.01-.08.1-.21.34-.42,1.86-1.45,4.61-4.26,5.76-7.5-.94.16-2.88.56-3.64.73-.36.13-.38.31-.64.35-.26.04-1.91-.31-1.96-.63,0-.06.06-.1.23-.13.08-.01.17-.02.28-.02.64.04,1.4-.03,2.21-.15.92-.14,2.84-.52,3.23-.61ZM57.17,50.53c-.05-.2-.43-.28-1.07-.34-.2-.03-.37-.06-.39-.13,0-.04.19-.28.83-.37.79-.12,1.65-.11,1.86-.04,1.75-.26,2.52-.37,4.29-.71.45-.1.61-.19.97-.32,0-.31-.07-1.35-.17-2.3-1.18.18-3.46.63-5.27.98-.53.19-.57.41-.89.46-.4.06-1.94-.37-1.97-.57,0-.06.06-.11.25-.13.08-.01.17-.02.28-.02.65-.04,1.54-.13,2.51-.28,1.47-.22,3.15-.54,4.62-.86.35-.11.3-.18.69-.24.11-.02.24-.04.44-.05.57-.05.75.02.78.17.02.13-.14.35-.19.55-.16.6-.31,1.43-.38,2.09.54.02.81.17.83.32s-.17.29-.58.35c-1.44.25-3.97.69-5.98,1-.17.14-.31.12-.28.35l.24,1.64c.07.35.23.41.53.36.36-.05.92-.12,1.6-.22.94-.14,2.1-.33,3.23-.52,1.11-.3.68-.6,1.84-.77.51-.08,1.47-.22,1.55.33.03.23-.18.47-.59.53l-7.52,1.12c-1.39.21-1.76-.24-1.85-.78l-.23-1.58ZM62.22,36.66c-.03-.19-.55-.49-1.77-.77-.3-.05-.46-.14-.48-.24-.02-.11.2-.24.64-.33.89-.06,1.51.1,2.04.16.58.13.73.24.75.43.02.13-.03.29,0,.52l.74,5.08c.26-.06.45-.07.73-.15.82-.29.43-.6,1.76-.8.41-.06,1.15-.17,1.22.34.03.23-.14.48-.46.55l-3.21.53c.25,2.1-.28,2.75-.49,2.78-.15.02-.31-.16-.39-.71l-1.1-7.39Z"/>
    <path class="st0" d="M77.47,38.36c.86-.11.37-.37,1.89-.37.68.04.98.27.98.5,0,.19-.26.35-.67.36-1.35,0-2.28.04-3.06.02.24.31.31.48.31.62,0,.19-.16.26-.18.41,1.85.33,2.68,1.44,2.65,2.48-.03,1.04-1.07,2.29-3.19,2.24-1.96-.05-3.07-1.2-3.04-2.45.03-1.03.87-2.03,2.63-2.29.21-.09.31-.22.31-.37s-.11-.34-.25-.56c-.59-.02-1.22-.03-2,.04-.38.03-.44.18-.63.17-.27,0-1.47-.68-1.46-.89,0-.06.06-.07.15-.07.1,0,.23.02.4.07.68.09,1.27.15,2.03.17.17,0,2.45.02,3.14-.07ZM72.37,51.65c2.44-1.53,4.66-4.58,4.67-4.99,0-.34-.34-.71-.79-.95-.09-.04-.19-.12-.19-.18,0-.08.1-.13.4-.12.63.02,1.26.43,1.82.83.13.06.19.14.18.25,0,.23-.32.58-.77,1.2,1.13,1.07,1.82.24,2.25,1.92.04.11.03.21.03.3,0,.3-.15.53-.38.52-.13,0-.3-.1-.47-.34-.46-.64-.87-1.07-1.7-2.04-2.67,3.26-5.29,3.99-5.39,3.99-.06,0-.08-.02-.08-.04,0-.06.12-.19.39-.35ZM75.52,37.19c-.38,0-1.56-.88-1.55-1.1,0-.06.04-.09.19-.09.09,0,.23.02.42.07.68.13,1.19.22,3.07.31.47.05.75.25.75.46,0,.19-.29.37-1,.37h-1.88ZM74.14,42.13c-.02.82.66,1.65,2.07,1.69,1.44.04,2.21-.76,2.23-1.58.02-.85-.7-1.71-2.14-1.75-1.41-.04-2.13.78-2.15,1.64ZM82.3,45c.44.07,1.07.5,1.37.68.41.24.54.34.54.47,0,.15-.68,1.37-.8,1.63,1.73,2.1,2.08,1,2.77,3.02.07.21.1.4.1.55,0,.28-.15.47-.33.47-.17,0-.4-.16-.63-.53-.79-1.2-1.47-2.15-2.18-3.14-1.18,1.68-2.43,2.98-4.21,3.9-.21.11-.35.16-.44.16-.06,0-.09-.04-.09-.08,0-.08.1-.19.29-.33,1.59-1.18,3.24-3.38,4.03-5.3.02-.06.04-.11.04-.17,0-.3-.29-.65-.79-.99-.13-.08-.21-.16-.2-.23s.12-.13.4-.12h.13ZM81.13,36.95c-.03-.44-.57-.74-1.23-1.06-.19-.1-.41-.22-.41-.31,0-.08.17-.15.67-.17,1.91.37,2.19.55,2.18.82,0,.11-.06.25-.07.42l-.11,4.35h2.38s.12-4.67.12-4.67c0-.4-.7-.84-1.49-1.25-.19-.06-.36-.16-.35-.26,0-.1.18-.19.61-.19,2.14.47,2.47.75,2.46,1.05,0,.15-.08.32-.09.51l-.28,6.4c-.07,1.14-.43,1.78-.69,1.77-.17,0-.33-.31-.34-.98l.03-1.86h-2.38s-.13,1.42-.13,1.42c-.12.95-.46,1.51-.72,1.5-.19,0-.35-.29-.34-.94l.17-6.54Z"/>
    <path class="st0" d="M103.34,45.5c-.96-.13-1.81-.24-2.3-.3-.42-.03-.51.15-.77.1-.17-.03-.41-.16-.88-.52-.56,1.75-2.14,2.85-4.58,2.36-2.76-.55-3.96-2.57-3.59-4.43.32-1.58,1.78-2.92,4.23-2.78.35,0,.7-.03.77-.37.02-.11,0-.25-.06-.38-.09-.13-.14-.26-.13-.33.01-.06.08-.1.21-.07.52.1,1.07.75,1.03.94-.03.15-.28.23-.48.45,2.17.96,2.93,2.4,2.72,4.07h-.02c.24.08.6.17,1.03.26.93.19,2.16.35,2.94.43l1.09-5.46c.04-.4-.74-1.14-1.37-1.61-.26-.15-.44-.32-.42-.43.02-.11.23-.17.71-.09.88.37,1.77.85,2.11,1.06.32.24.38.35.35.48-.02.09-.1.21-.14.44l-2.15,10.81c-.72,3.42-1,4.35-1.51,4.95-.15.18-.31.29-.4.27-.19-.04-.26-.44-.08-1.37l1.68-8.44ZM92.37,42.99c-.28,1.4.47,3,2.55,3.41,1.94.39,3.2-.82,3.48-2.21.28-1.4-.43-2.99-2.37-3.38-2.09-.42-3.39.78-3.67,2.18Z"/>
    <path class="st0" d="M122.58,59.28c-1.17-.51-2.64-1.09-4.17-1.65-2.98-1.09-6.2-2.13-7.95-2.59-.44,0-.62.14-.92.03-.46-.17-2.03-1.7-1.95-1.91.02-.05.1-.06.26,0,.05.02.14.05.24.11,1.18.64,2.88,1.32,4.65,1.93.08-.38.38-1.32.51-1.94.02-.28-.19-.47-.95-1.12-.17-.1-.26-.22-.24-.29.03-.09.22-.1.63-.01,1.79.8,1.98,1.07,1.88,1.34-.03.09-.11.18-.15.31-.07.18-.58,1.69-.69,2.05.6.24,2.58.91,3.82,1.28.2-.39.57-1.17,1.01-2.26.11-.41-.21-.7-.56-1.07-.13-.09-.21-.2-.19-.25.03-.07.2-.09.61,0,1.47.84,1.75,1.13,1.67,1.34-.05.14-.24.26-.39.45-.29.5-.82,1.42-1.25,2.07.36.13,1.02.36,1.71.48.62.19.62-.16,1.5.17.48.18,1.95.76,1.7,1.43-.07.2-.29.3-.65.17l-.14-.05ZM118.9,44.49c.21.08.57,0,.66-.26.03-.09.04-.21-.01-.35-.11-.2-.16-.34-.13-.41.03-.07.11-.08.27-.02.61.22.99.77.91.98-.07.2-.4.26-.51.5,2.4,1.3,2.98,3.34,2.39,4.95-.65,1.78-2.83,3.01-5.5,2.03s-3.5-3.37-2.83-5.19c.58-1.57,2.23-2.72,4.74-2.23ZM115.17,47.11c-.52,1.41.02,3.2,2.12,3.98,2.09.77,3.66-.26,4.17-1.67.52-1.41-.02-3.2-2.1-3.97-2.11-.77-3.67.25-4.19,1.66Z"/>
  </g>
  <path class="st0" d="M86.23,113.3h-3.3l-4.46-4-3.6-7.6,1.21-5.28,2.39-2.04c0-8.22,1.07-15.53,5.51-19.97-.82-1.68.31-3.15,3.71-4.38,1.1-2.04,2.59-2.44,4.46-1.31,2.85-1.66,6.27-1.5,9.94-.52l7.96,1.72,9.7,8.35c3.45,5.36,6.03,10.8,4.62,16.62l11.91,7.23.74,3.46-5.45,1.08c1.02,5.09-3.36,7.84-10.65,9.33l-6.6-1.29,2.43-7.7c5.57-.54,7.62-12.11-2.46-10.26l-1.19-5.96-5.36,1.97-.08-1.3-1.71-.48-6.05,1.61-3.38.87-2.2-.2-1.2-.58-1.36-.97-1.88,2-3.68.45-1.91,1.19-1.37,2.01,1.33.31v3.48l1.97,12.16h0Z"/>
</svg>